<?xml version="1.0" encoding="utf-8"?>
<COLLADA xmlns="http://www.collada.org/2005/11/COLLADASchema" version="1.4.0">
  <asset>
    <contributor>
      <author></author>
      <authoring_tool>FBX COLLADA exporter</authoring_tool>
      <comments></comments>
    </contributor>
    <created>2010-12-17T07:47:23Z</created>
    <modified>2010-12-17T07:47:23Z</modified>
    <revision></revision>
    <title></title>
    <subject></subject>
    <keywords></keywords>
    <unit meter="0.010000"/>
    <up_axis>Y_UP</up_axis>
  </asset>
  <library_images>
    <image id="file1-image" name="file1">
      <init_from>file://C:/project_bm3/sample_database/model/white_16_ks01.png</init_from>
    </image>
  </library_images>
  <library_materials>
    <material id="lambert2" name="lambert2">
      <instance_effect url="#lambert2-fx"/>
    </material>
  </library_materials>
  <library_effects>
    <effect id="lambert2-fx" name="lambert2">
      <profile_COMMON>
        <technique sid="standard">
          <lambert>
            <emission>
              <color sid="emission">0.000000  0.000000 0.000000 1.000000</color>
            </emission>
            <ambient>
              <color sid="ambient">0.000000  0.000000 0.000000 1.000000</color>
            </ambient>
            <diffuse>
              <texture texture="file1-image" texcoord="CHANNEL0">
                <extra>
                  <technique profile="MAYA">
                    <wrapU sid="wrapU0">TRUE</wrapU>
                    <wrapV sid="wrapV0">TRUE</wrapV>
                    <blend_mode>NONE</blend_mode>
                  </technique>
                </extra>
              </texture>
            </diffuse>
            <transparent>
              <color sid="transparent">0.000000  0.000000 0.000000 1.000000</color>
            </transparent>
            <transparency>
              <float sid="transparency">1.000000</float>
            </transparency>
          </lambert>
        </technique>
      </profile_COMMON>
    </effect>
  </library_effects>
  <library_geometries>
    <geometry id="pSphere3-lib" name="pSphere3Mesh">
      <mesh>
        <source id="pSphere3-lib-Position">
          <float_array id="pSphere3-lib-Position-array" count="81">
-0.399211 -0.204613 -1.228646
-0.759345 -0.204613 -1.045148
-1.045148 -0.204613 -0.759345
-1.228645 -0.204613 -0.399211
-1.291874 -0.204613 0.000000
-1.228645 -0.204613 0.399211
-1.045148 -0.204613 0.759345
-0.759345 -0.204613 1.045148
-0.399211 -0.204613 1.228645
-0.404187 0.000000 -1.243961
-0.768810 0.000000 -1.058176
-1.058176 0.000000 -0.768810
-1.243961 0.000000 -0.404187
-1.307978 0.000000 0.000000
-1.243961 0.000000 0.404187
-1.058176 0.000000 0.768810
-0.768810 0.000000 1.058176
-0.404187 0.000000 1.243960
-0.399211 0.204613 -1.228646
-0.759345 0.204613 -1.045148
-1.045148 0.204613 -0.759345
-1.228645 0.204613 -0.399211
-1.291874 0.204613 0.000000
-1.228645 0.204613 0.399211
-1.045148 0.204613 0.759345
-0.759345 0.204613 1.045148
-0.399211 0.204613 1.228645
</float_array>
          <technique_common>
            <accessor source="#pSphere3-lib-Position-array" count="27" stride="3">
              <param name="X" type="float"/>
              <param name="Y" type="float"/>
              <param name="Z" type="float"/>
            </accessor>
          </technique_common>
        </source>
        <source id="pSphere3-lib-Normal0">
          <float_array id="pSphere3-lib-Normal0-array" count="81">
-0.452625 -0.077499 -0.888327
-0.585974 -0.078459 -0.806523
-0.806523 -0.078460 -0.585973
-0.948125 -0.078459 -0.308064
-0.996917 -0.078459 0.000000
-0.948125 -0.078459 0.308064
-0.806523 -0.078459 0.585973
-0.585973 -0.078459 0.806523
-0.452625 -0.077499 0.888327
-0.453991 0.000000 -0.891006
-0.587785 0.000000 -0.809017
-0.809017 0.000000 -0.587785
-0.951057 0.000000 -0.309017
-1.000000 0.000000 0.000000
-0.951057 -0.000000 0.309017
-0.809017 0.000000 0.587785
-0.587785 -0.000000 0.809017
-0.453990 0.000000 0.891006
-0.452625 0.077499 -0.888327
-0.585974 0.078459 -0.806523
-0.806523 0.078460 -0.585973
-0.948125 0.078459 -0.308064
-0.996917 0.078459 0.000000
-0.948125 0.078459 0.308064
-0.806523 0.078459 0.585973
-0.585973 0.078459 0.806523
-0.452625 0.077499 0.888327
</float_array>
          <technique_common>
            <accessor source="#pSphere3-lib-Normal0-array" count="27" stride="3">
              <param name="X" type="float"/>
              <param name="Y" type="float"/>
              <param name="Z" type="float"/>
            </accessor>
          </technique_common>
        </source>
        <source id="pSphere3-lib-UV0">
          <float_array id="pSphere3-lib-UV0-array" count="54">
0.250000 0.450000
0.300000 0.450000
0.350000 0.450000
0.400000 0.450000
0.450000 0.450000
0.500000 0.450000
0.550000 0.450000
0.600000 0.450000
0.650000 0.450000
0.250000 0.500000
0.300000 0.500000
0.350000 0.500000
0.400000 0.500000
0.450000 0.500000
0.500000 0.500000
0.550000 0.500000
0.600000 0.500000
0.650000 0.500000
0.250000 0.550000
0.300000 0.550000
0.350000 0.550000
0.400000 0.550000
0.450000 0.550000
0.500000 0.550000
0.550000 0.550000
0.600000 0.550000
0.650000 0.550000
</float_array>
          <technique_common>
            <accessor source="#pSphere3-lib-UV0-array" count="27" stride="2">
              <param name="S" type="float"/>
              <param name="T" type="float"/>
            </accessor>
          </technique_common>
        </source>
        <vertices id="pSphere3-lib-Vertex">
          <input semantic="POSITION" source="#pSphere3-lib-Position"/>
        </vertices>
        <polygons material="lambert2" count="16">
          <input semantic="VERTEX" offset="0" source="#pSphere3-lib-Vertex"/>
          <input semantic="NORMAL" offset="1" source="#pSphere3-lib-Normal0"/>
          <input semantic="TEXCOORD" offset="2" set="0" source="#pSphere3-lib-UV0"/>
          <p>0 0 0 1 1 1 10 10 10 9 9 9</p>
          <p>1 1 1 2 2 2 11 11 11 10 10 10</p>
          <p>2 2 2 3 3 3 12 12 12 11 11 11</p>
          <p>3 3 3 4 4 4 13 13 13 12 12 12</p>
          <p>4 4 4 5 5 5 14 14 14 13 13 13</p>
          <p>5 5 5 6 6 6 15 15 15 14 14 14</p>
          <p>6 6 6 7 7 7 16 16 16 15 15 15</p>
          <p>7 7 7 8 8 8 17 17 17 16 16 16</p>
          <p>9 9 9 10 10 10 19 19 19 18 18 18</p>
          <p>10 10 10 11 11 11 20 20 20 19 19 19</p>
          <p>11 11 11 12 12 12 21 21 21 20 20 20</p>
          <p>12 12 12 13 13 13 22 22 22 21 21 21</p>
          <p>13 13 13 14 14 14 23 23 23 22 22 22</p>
          <p>14 14 14 15 15 15 24 24 24 23 23 23</p>
          <p>15 15 15 16 16 16 25 25 25 24 24 24</p>
          <p>16 16 16 17 17 17 26 26 26 25 25 25</p>
        </polygons>
      </mesh>
    </geometry>
  </library_geometries>
  <library_visual_scenes>
    <visual_scene id="RootNode" name="RootNode">
      <node id="pSphere3" name="pSphere3">
        <scale sid="scale">59.125098 41.387569 59.125098</scale>
        <instance_geometry url="#pSphere3-lib">
          <bind_material>
            <technique_common>
              <instance_material symbol="lambert2" target="#lambert2"/>
            </technique_common>
          </bind_material>
        </instance_geometry>
      </node>
    </visual_scene>
  </library_visual_scenes>
  <scene>
    <instance_visual_scene url="#RootNode"/>
  </scene>
</COLLADA>

