<?xml version="1.0" encoding="utf-8"?>
<COLLADA xmlns="http://www.collada.org/2005/11/COLLADASchema" version="1.4.0">
  <asset>
    <contributor>
      <author></author>
      <authoring_tool>FBX COLLADA exporter</authoring_tool>
      <comments></comments>
    </contributor>
    <created>2010-12-17T07:19:49Z</created>
    <modified>2010-12-17T07:19:49Z</modified>
    <revision></revision>
    <title></title>
    <subject></subject>
    <keywords></keywords>
    <unit meter="0.010000"/>
    <up_axis>Y_UP</up_axis>
  </asset>
  <library_images>
    <image id="file1-image" name="file1">
      <init_from>file://C:/project_bm3/sample_database/model/white_16_ks01.png</init_from>
    </image>
  </library_images>
  <library_materials>
    <material id="lambert1" name="lambert1">
      <instance_effect url="#lambert1-fx"/>
    </material>
    <material id="lambert2" name="lambert2">
      <instance_effect url="#lambert2-fx"/>
    </material>
  </library_materials>
  <library_effects>
    <effect id="lambert1-fx" name="lambert1">
      <profile_COMMON>
        <technique sid="standard">
          <lambert>
            <emission>
              <color sid="emission">0.000000  0.000000 0.000000 1.000000</color>
            </emission>
            <ambient>
              <color sid="ambient">0.000000  0.000000 0.000000 1.000000</color>
            </ambient>
            <diffuse>
              <color sid="diffuse">0.400000  0.400000 0.400000 1.000000</color>
            </diffuse>
            <transparent>
              <color sid="transparent">0.000000  0.000000 0.000000 1.000000</color>
            </transparent>
            <transparency>
              <float sid="transparency">1.000000</float>
            </transparency>
          </lambert>
        </technique>
      </profile_COMMON>
    </effect>
    <effect id="lambert2-fx" name="lambert2">
      <profile_COMMON>
        <technique sid="standard">
          <lambert>
            <emission>
              <color sid="emission">0.000000  0.000000 0.000000 1.000000</color>
            </emission>
            <ambient>
              <color sid="ambient">0.000000  0.000000 0.000000 1.000000</color>
            </ambient>
            <diffuse>
              <texture texture="file1-image" texcoord="CHANNEL0">
                <extra>
                  <technique profile="MAYA">
                    <wrapU sid="wrapU0">TRUE</wrapU>
                    <wrapV sid="wrapV0">TRUE</wrapV>
                    <blend_mode>NONE</blend_mode>
                  </technique>
                </extra>
              </texture>
            </diffuse>
            <transparent>
              <color sid="transparent">0.000000  0.000000 0.000000 1.000000</color>
            </transparent>
            <transparency>
              <float sid="transparency">1.000000</float>
            </transparency>
          </lambert>
        </technique>
      </profile_COMMON>
    </effect>
  </library_effects>
  <library_geometries>
    <geometry id="transform1-lib" name="transform1Mesh">
      <mesh>
        <source id="transform1-lib-Position">
          <float_array id="transform1-lib-Position-array" count="288">
-39.238415 1.774602 0.997302
-131.069595 0.818004 0.997302
-130.860336 -0.239150 0.000000
-39.029156 0.717449 0.000000
-88.496262 -2.843259 16.948320
-88.287003 -3.900413 15.951017
-65.940811 12.743200 -5.732401
-65.731560 11.686047 -6.729703
-48.934357 13.333606 5.749506
-48.725098 12.276452 4.752204
-41.592896 5.889957 6.807274
-41.383640 4.832804 5.809971
-40.170319 3.598141 4.188130
-39.961060 2.540987 3.190828
-43.727303 8.655362 8.116370
-43.518047 7.598208 7.119068
-46.322212 11.292786 7.547192
-46.112957 10.235632 6.549889
-56.784397 16.282103 -1.762065
-56.575142 15.224950 -2.759367
-51.496235 14.812929 3.403893
-51.286980 13.755775 2.406591
-54.082176 15.802691 0.832065
-53.872921 14.745538 -0.165237
-59.717072 16.103373 -4.127888
-59.507813 15.046219 -5.125190
-62.912460 14.944210 -5.703065
-62.703205 13.887056 -6.700367
-77.377724 -2.521214 6.031374
-77.168472 -3.578368 5.034072
-72.445465 4.894176 -0.978153
-72.236206 3.837022 -1.975456
-68.446732 10.153518 -4.629056
-68.237473 9.096364 -5.626359
-70.567490 7.508429 -2.962092
-70.358231 6.451275 -3.959395
-74.168755 2.340177 1.212693
-73.959503 1.283023 0.215390
-75.797333 -0.137991 3.557983
-75.588074 -1.195144 2.560681
-82.415680 -8.521978 14.174789
-82.206429 -9.579133 13.177487
-78.955284 -4.776011 8.621057
-78.746025 -5.833164 7.623754
-80.595123 -6.838954 11.333911
-80.385872 -7.896108 10.336608
-84.774300 -8.938855 16.995903
-84.565048 -9.996009 15.998600
-87.050751 -6.229064 17.778450
-86.841492 -7.286218 16.781149
-104.434135 22.285349 -13.638619
-104.224876 21.228195 -14.635922
-94.770317 15.019520 4.798293
-94.561058 13.962366 3.800990
-91.642044 6.770743 11.886601
-91.432785 5.713590 10.889299
-89.635574 0.478368 15.557151
-89.426315 -0.578786 14.559849
-90.657829 3.688313 13.843364
-90.448578 2.631160 12.846062
-92.633240 9.704784 9.721194
-92.423988 8.647631 8.723892
-93.666191 12.467173 7.357510
-93.456940 11.410019 6.360207
-98.787842 20.769295 -4.034343
-98.578583 19.712141 -5.031645
-95.974174 17.307861 2.042307
-95.764915 16.250708 1.045005
-97.305267 19.256628 -0.907437
-97.096016 18.199474 -1.904739
-100.444016 21.787401 -7.274143
-100.234764 20.730246 -8.271445
-102.308022 22.303333 -10.518818
-102.098763 21.246180 -11.516120
-120.763725 11.626997 -15.934806
-120.554466 10.569843 -16.932108
-112.774208 18.413082 -19.538008
-112.564949 17.355928 -20.535309
-106.891312 21.663860 -16.432226
-106.682060 20.606707 -17.429529
-109.714333 20.358450 -18.550327
-109.505081 19.301294 -19.547628
-115.746071 16.127352 -19.222042
-115.536812 15.070197 -20.219345
-118.408432 13.824435 -17.900330
-118.199173 12.767282 -18.897633
-126.503212 5.799151 -8.131306
-126.293953 4.741997 -9.128608
-122.862778 9.564400 -13.568781
-122.653526 8.507246 -14.566083
-124.772392 7.616001 -10.924563
-124.563141 6.558847 -11.921865
-128.120926 4.062933 -5.185803
-127.911674 3.005780 -6.183106
-129.638870 2.404370 -2.132734
-129.429626 1.347216 -3.130037
</float_array>
          <technique_common>
            <accessor source="#transform1-lib-Position-array" count="96" stride="3">
              <param name="X" type="float"/>
              <param name="Y" type="float"/>
              <param name="Z" type="float"/>
            </accessor>
          </technique_common>
        </source>
        <source id="transform1-lib-Normal0">
          <float_array id="transform1-lib-Normal0-array" count="288">
0.920934 -0.155025 0.357558
0.925640 -0.146087 0.349069
0.925641 -0.146087 0.349066
0.920933 -0.155033 0.357558
-0.943381 -0.306469 0.126916
-0.932293 -0.328123 0.152197
0.607111 -0.478386 0.634479
0.513540 -0.532844 0.672572
-0.716299 -0.548598 0.431226
-0.718474 -0.547239 0.429330
-0.226347 -0.691737 0.685760
0.070635 -0.677068 0.732522
0.577573 -0.496778 0.647782
0.788250 -0.332467 0.517810
-0.618263 -0.600627 0.506950
-0.551566 -0.627560 0.549493
-0.707432 -0.554033 0.438848
-0.693956 -0.561987 0.450107
-0.501568 -0.644117 0.577532
-0.553841 -0.626737 0.548143
-0.690557 -0.563938 0.452886
-0.702439 -0.557022 0.443064
-0.629357 -0.595547 0.499233
-0.654291 -0.583430 0.481158
-0.219382 -0.692126 0.687629
-0.336866 -0.680532 0.650690
0.250779 -0.637561 0.728441
0.073576 -0.676611 0.732655
0.901964 -0.188133 0.388674
0.901112 -0.189525 0.389971
0.867740 -0.239227 0.435657
0.858759 -0.251270 0.446539
0.765854 -0.354499 0.536468
0.729811 -0.387121 0.563484
0.833577 -0.282708 0.474579
0.816876 -0.301947 0.491468
0.886843 -0.211850 0.410644
0.881691 -0.219494 0.417665
0.897501 -0.195347 0.395387
0.894708 -0.199767 0.399488
0.787902 -0.332825 0.518111
0.834699 -0.281376 0.473397
0.899573 -0.192021 0.392297
0.901199 -0.189380 0.389840
0.883254 -0.217198 0.415557
0.890723 -0.205956 0.405210
-0.160526 -0.693948 0.701903
0.388967 -0.590274 0.707305
-0.831470 -0.459369 0.312472
-0.705499 -0.555197 0.440485
-0.559589 -0.624629 0.544700
-0.619925 -0.599879 0.505804
-0.940601 -0.312156 0.133523
-0.944603 -0.303910 0.123951
-0.961407 -0.263854 0.077962
-0.962039 -0.262119 0.075993
-0.958712 -0.271023 0.086129
-0.956058 -0.277759 0.093825
-0.962199 -0.261676 0.075491
-0.961731 -0.262965 0.076958
-0.957732 -0.273545 0.089006
-0.959268 -0.269571 0.084470
-0.951098 -0.289606 0.107428
-0.953673 -0.283568 0.100488
-0.861700 -0.427878 0.272751
-0.876021 -0.411176 0.252035
-0.924449 -0.342019 0.168576
-0.930591 -0.331227 0.155846
-0.899527 -0.380517 0.214608
-0.909028 -0.366705 0.197979
-0.804477 -0.484028 0.344286
-0.826173 -0.464438 0.318961
-0.713428 -0.550374 0.433714
-0.748605 -0.527322 0.401899
0.809297 -0.310311 0.498743
0.790429 -0.330239 0.515911
0.392363 -0.588903 0.706573
0.287496 -0.626519 0.724445
-0.301837 -0.685142 0.662929
-0.402012 -0.669171 0.624977
0.054688 -0.679439 0.731691
-0.073993 -0.692046 0.718051
0.615571 -0.472892 0.630433
0.554717 -0.510223 0.657237
0.739751 -0.378441 0.556372
0.706931 -0.406256 0.578969
0.897877 -0.194748 0.394830
0.892257 -0.203590 0.403025
0.851370 -0.260837 0.455119
0.839553 -0.275532 0.468223
0.878821 -0.223666 0.421482
0.870903 -0.234873 0.431697
0.911843 -0.171428 0.373034
0.907642 -0.178664 0.379823
0.922480 -0.152125 0.354807
0.919245 -0.158158 0.360519
</float_array>
          <technique_common>
            <accessor source="#transform1-lib-Normal0-array" count="96" stride="3">
              <param name="X" type="float"/>
              <param name="Y" type="float"/>
              <param name="Z" type="float"/>
            </accessor>
          </technique_common>
        </source>
        <source id="transform1-lib-UV0">
          <float_array id="transform1-lib-UV0-array" count="192">
0.000000 0.000000
1.000000 0.000000
1.000000 1.000000
0.000000 1.000000
0.580445 0.000000
0.580445 1.000000
0.275578 0.000000
0.275578 1.000000
0.120186 0.000000
0.120186 1.000000
0.038059 0.000000
0.038059 1.000000
0.016698 0.000000
0.016698 1.000000
0.065187 0.000000
0.065187 1.000000
0.093914 0.000000
0.093914 1.000000
0.192124 0.000000
0.192124 1.000000
0.144427 0.000000
0.144427 1.000000
0.167992 0.000000
0.167992 1.000000
0.218217 0.000000
0.218217 1.000000
0.247119 0.000000
0.247119 1.000000
0.399031 0.000000
0.399031 1.000000
0.341889 0.000000
0.341889 1.000000
0.300178 0.000000
0.300178 1.000000
0.321880 0.000000
0.321880 1.000000
0.361014 0.000000
0.361014 1.000000
0.379873 0.000000
0.379873 1.000000
0.467980 0.000000
0.467980 1.000000
0.419156 0.000000
0.419156 1.000000
0.441366 0.000000
0.441366 1.000000
0.506733 0.000000
0.506733 1.000000
0.550250 0.000000
0.550250 1.000000
0.817569 0.000000
0.817569 1.000000
0.702098 0.000000
0.702098 1.000000
0.646137 0.000000
0.646137 1.000000
0.604735 0.000000
0.604735 1.000000
0.626213 0.000000
0.626213 1.000000
0.665157 0.000000
0.665157 1.000000
0.683713 0.000000
0.683713 1.000000
0.758002 0.000000
0.758002 1.000000
0.720530 0.000000
0.720530 1.000000
0.739149 0.000000
0.739149 1.000000
0.777166 0.000000
0.777166 1.000000
0.796899 0.000000
0.796899 1.000000
0.940227 0.000000
0.940227 1.000000
0.886149 0.000000
0.886149 1.000000
0.839551 0.000000
0.839551 1.000000
0.862823 0.000000
0.862823 1.000000
0.907277 0.000000
0.907277 1.000000
0.925142 0.000000
0.925142 1.000000
0.974622 0.000000
0.974622 1.000000
0.953168 0.000000
0.953168 1.000000
0.964569 0.000000
0.964569 1.000000
0.983794 0.000000
0.983794 1.000000
0.992216 0.000000
0.992216 1.000000
</float_array>
          <technique_common>
            <accessor source="#transform1-lib-UV0-array" count="96" stride="2">
              <param name="S" type="float"/>
              <param name="T" type="float"/>
            </accessor>
          </technique_common>
        </source>
        <vertices id="transform1-lib-Vertex">
          <input semantic="POSITION" source="#transform1-lib-Position"/>
        </vertices>
        <polygons material="lambert1" count="94">
          <input semantic="VERTEX" offset="0" source="#transform1-lib-Vertex"/>
          <input semantic="NORMAL" offset="1" source="#transform1-lib-Normal0"/>
          <input semantic="TEXCOORD" offset="2" set="0" source="#transform1-lib-UV0"/>
          <p>94 94 94 1 1 1 2 2 2</p>
          <p>48 48 48 4 4 4 5 5 5</p>
          <p>26 26 26 6 6 6 7 7 7</p>
          <p>16 16 16 8 8 8 9 9 9</p>
          <p>12 12 12 10 10 10 11 11 11</p>
          <p>0 0 0 12 12 12 13 13 13</p>
          <p>10 10 10 14 14 14 15 15 15</p>
          <p>14 14 14 16 16 16 17 17 17</p>
          <p>22 22 22 18 18 18 19 19 19</p>
          <p>8 8 8 20 20 20 21 21 21</p>
          <p>20 20 20 22 22 22 23 23 23</p>
          <p>18 18 18 24 24 24 25 25 25</p>
          <p>24 24 24 26 26 26 27 27 27</p>
          <p>38 38 38 28 28 28 29 29 29</p>
          <p>34 34 34 30 30 30 31 31 31</p>
          <p>6 6 6 32 32 32 33 33 33</p>
          <p>32 32 32 34 34 34 35 35 35</p>
          <p>30 30 30 36 36 36 37 37 37</p>
          <p>36 36 36 38 38 38 39 39 39</p>
          <p>44 44 44 40 40 40 41 41 41</p>
          <p>28 28 28 42 42 42 43 43 43</p>
          <p>42 42 42 44 44 44 45 45 45</p>
          <p>40 40 40 46 46 46 47 47 47</p>
          <p>46 46 46 48 48 48 49 49 49</p>
          <p>72 72 72 50 50 50 51 51 51</p>
          <p>62 62 62 52 52 52 53 53 53</p>
          <p>58 58 58 54 54 54 55 55 55</p>
          <p>4 4 4 56 56 56 57 57 57</p>
          <p>56 56 56 58 58 58 59 59 59</p>
          <p>54 54 54 60 60 60 61 61 61</p>
          <p>60 60 60 62 62 62 63 63 63</p>
          <p>68 68 68 64 64 64 65 65 65</p>
          <p>52 52 52 66 66 66 67 67 67</p>
          <p>66 66 66 68 68 68 69 69 69</p>
          <p>64 64 64 70 70 70 71 71 71</p>
          <p>70 70 70 72 72 72 73 73 73</p>
          <p>84 84 84 74 74 74 75 75 75</p>
          <p>80 80 80 76 76 76 77 77 77</p>
          <p>50 50 50 78 78 78 79 79 79</p>
          <p>78 78 78 80 80 80 81 81 81</p>
          <p>76 76 76 82 82 82 83 83 83</p>
          <p>82 82 82 84 84 84 85 85 85</p>
          <p>90 90 90 86 86 86 87 87 87</p>
          <p>74 74 74 88 88 88 89 89 89</p>
          <p>88 88 88 90 90 90 91 91 91</p>
          <p>86 86 86 92 92 92 93 93 93</p>
          <p>92 92 92 94 94 94 95 95 95</p>
          <p>2 2 2 95 95 95 94 94 94</p>
          <p>5 5 5 49 49 49 48 48 48</p>
          <p>7 7 7 27 27 27 26 26 26</p>
          <p>9 9 9 17 17 17 16 16 16</p>
          <p>11 11 11 13 13 13 12 12 12</p>
          <p>13 13 13 3 3 3 0 0 0</p>
          <p>15 15 15 11 11 11 10 10 10</p>
          <p>17 17 17 15 15 15 14 14 14</p>
          <p>19 19 19 23 23 23 22 22 22</p>
          <p>21 21 21 9 9 9 8 8 8</p>
          <p>23 23 23 21 21 21 20 20 20</p>
          <p>25 25 25 19 19 19 18 18 18</p>
          <p>27 27 27 25 25 25 24 24 24</p>
          <p>29 29 29 39 39 39 38 38 38</p>
          <p>31 31 31 35 35 35 34 34 34</p>
          <p>33 33 33 7 7 7 6 6 6</p>
          <p>35 35 35 33 33 33 32 32 32</p>
          <p>37 37 37 31 31 31 30 30 30</p>
          <p>39 39 39 37 37 37 36 36 36</p>
          <p>41 41 41 45 45 45 44 44 44</p>
          <p>43 43 43 29 29 29 28 28 28</p>
          <p>45 45 45 43 43 43 42 42 42</p>
          <p>47 47 47 41 41 41 40 40 40</p>
          <p>49 49 49 47 47 47 46 46 46</p>
          <p>51 51 51 73 73 73 72 72 72</p>
          <p>53 53 53 63 63 63 62 62 62</p>
          <p>55 55 55 59 59 59 58 58 58</p>
          <p>57 57 57 5 5 5 4 4 4</p>
          <p>59 59 59 57 57 57 56 56 56</p>
          <p>61 61 61 55 55 55 54 54 54</p>
          <p>63 63 63 61 61 61 60 60 60</p>
          <p>65 65 65 69 69 69 68 68 68</p>
          <p>67 67 67 53 53 53 52 52 52</p>
          <p>69 69 69 67 67 67 66 66 66</p>
          <p>71 71 71 65 65 65 64 64 64</p>
          <p>73 73 73 71 71 71 70 70 70</p>
          <p>75 75 75 85 85 85 84 84 84</p>
          <p>77 77 77 81 81 81 80 80 80</p>
          <p>79 79 79 51 51 51 50 50 50</p>
          <p>81 81 81 79 79 79 78 78 78</p>
          <p>83 83 83 77 77 77 76 76 76</p>
          <p>85 85 85 83 83 83 82 82 82</p>
          <p>87 87 87 91 91 91 90 90 90</p>
          <p>89 89 89 75 75 75 74 74 74</p>
          <p>91 91 91 89 89 89 88 88 88</p>
          <p>93 93 93 87 87 87 86 86 86</p>
          <p>95 95 95 93 93 93 92 92 92</p>
        </polygons>
      </mesh>
    </geometry>
    <geometry id="transform2-lib" name="transform2Mesh">
      <mesh>
        <source id="transform2-lib-Position">
          <float_array id="transform2-lib-Position-array" count="252">
-81.647644 -7.954103 13.100842
-114.218399 45.846516 -11.800100
-114.148811 45.145870 -13.088598
-81.578049 -8.654749 11.812346
-112.748909 4.492901 10.104178
-112.679314 3.792255 8.815681
-102.795052 -18.012186 21.376049
-102.725456 -18.712831 20.087553
-89.662643 -15.288000 22.115986
-89.593048 -15.988646 20.827490
-84.182152 -10.686599 17.461258
-84.112564 -11.387245 16.172760
-82.820900 -9.269835 15.367606
-82.751305 -9.970482 14.079109
-85.755219 -12.185529 19.324726
-85.685631 -12.886175 18.036228
-87.577103 -13.742131 20.903679
-87.507507 -14.442778 19.615181
-94.618896 -17.889931 23.164534
-94.549309 -18.590576 21.876036
-92.020020 -16.722095 22.888527
-91.950432 -17.422743 21.600029
-97.381866 -18.600359 22.939157
-97.312271 -19.301004 21.650660
-100.165962 -18.670094 22.289574
-100.096375 -19.370741 21.001076
-111.430687 -8.369734 15.926288
-111.361099 -9.070379 14.637791
-107.159500 -14.989304 19.284679
-107.089905 -15.689950 17.996181
-105.138107 -16.716925 20.355053
-105.068512 -17.417570 19.066557
-108.872520 -12.969931 18.184801
-108.802933 -13.670577 16.896305
-110.293488 -10.744196 17.063696
-110.223892 -11.444842 15.775198
-112.856010 -3.326190 13.612038
-112.786415 -4.026837 12.323540
-112.286354 -5.886338 14.774944
-112.216759 -6.586984 13.486446
-113.130165 -0.721828 12.442154
-113.060577 -1.422474 11.153656
-113.097870 1.895880 11.270390
-113.028275 1.195234 9.981892
-99.340782 26.879293 -1.334888
-99.271194 26.178646 -2.623386
-107.112938 16.351414 4.532517
-107.043350 15.650768 3.244019
-111.113792 9.486780 7.824275
-111.044197 8.786135 6.535777
-112.077911 7.032616 8.952991
-112.008324 6.331970 7.664494
-109.926865 11.853027 6.715752
-109.857269 11.152381 5.427255
-108.577911 14.136950 5.621705
-108.508316 13.436304 4.333207
-103.982712 20.624584 2.323619
-103.913124 19.923939 1.035122
-105.570076 18.509222 3.437539
-105.500488 17.808575 2.149041
-102.383736 22.713909 1.173413
-102.314140 22.013264 -0.115084
-100.816963 24.790676 -0.033882
-100.747368 24.090031 -1.322380
-101.210480 36.003929 -9.746994
-101.140892 35.303284 -11.035491
-97.276596 31.169724 -4.479614
-97.207001 30.469078 -5.768111
-98.071671 29.001226 -2.784603
-98.002075 28.300579 -4.073100
-97.569183 33.202602 -6.434685
-97.499596 32.501957 -7.723183
-99.083176 34.777081 -8.268265
-99.013580 34.076435 -9.556763
-108.519424 39.664703 -12.304285
-108.449829 38.964058 -13.592783
-103.588654 37.118286 -10.896646
-103.519058 36.417641 -12.185143
-106.062744 38.293400 -11.751347
-105.993156 37.592751 -13.039845
-110.824539 41.352242 -12.517859
-110.754944 40.651596 -13.806356
-112.788612 43.427582 -12.347928
-112.719017 42.726936 -13.636426
</float_array>
          <technique_common>
            <accessor source="#transform2-lib-Position-array" count="84" stride="3">
              <param name="X" type="float"/>
              <param name="Y" type="float"/>
              <param name="Z" type="float"/>
            </accessor>
          </technique_common>
        </source>
        <source id="transform2-lib-Normal0">
          <float_array id="transform2-lib-Normal0-array" count="252">
0.895339 -0.369197 0.249119
-0.808773 -0.533905 0.246641
-0.808770 -0.533908 0.246643
0.895342 -0.369190 0.249120
-0.978616 0.153861 -0.136522
-0.985519 0.120849 -0.118944
-0.500677 -0.771537 0.392496
-0.430064 -0.802669 0.413240
0.607931 -0.683293 0.404389
0.646261 -0.655220 0.391195
0.836000 -0.461858 0.296295
0.850110 -0.442003 0.286263
0.874630 -0.404508 0.267199
0.885210 -0.386943 0.258222
0.783626 -0.527024 0.328902
0.802886 -0.504444 0.317662
0.710908 -0.601021 0.365216
0.737838 -0.575458 0.352767
0.257949 -0.842872 0.472259
0.332676 -0.820821 0.464306
0.461162 -0.768832 0.442975
0.515807 -0.740631 0.430592
0.001920 -0.878472 0.477790
0.092767 -0.872618 0.479512
-0.269815 -0.851975 0.448707
-0.179385 -0.868300 0.462467
-0.943168 -0.310664 0.117987
-0.931038 -0.339336 0.134235
-0.771718 -0.575272 0.271135
-0.740230 -0.606647 0.289895
-0.663062 -0.672076 0.329639
-0.616420 -0.705255 0.350202
-0.847487 -0.484201 0.217522
-0.825091 -0.513869 0.234868
-0.902561 -0.396840 0.167039
-0.886089 -0.425612 0.183576
-0.990810 -0.133879 0.019285
-0.985788 -0.164093 0.035982
-0.972250 -0.223526 0.069031
-0.963756 -0.252753 0.085383
-0.998660 -0.040901 -0.031694
-0.997277 -0.072293 -0.014553
-0.994938 0.055382 -0.083851
-0.997533 0.022929 -0.066345
-0.884238 0.388598 -0.259065
-0.871183 0.410036 -0.270018
-0.847444 0.445844 -0.288204
-0.852902 0.437936 -0.284201
-0.919511 0.322336 -0.224942
-0.929957 0.299587 -0.213136
-0.951086 0.246927 -0.185642
-0.961305 0.216889 -0.169856
-0.890290 0.378167 -0.253719
-0.899526 0.361571 -0.245194
-0.865935 0.418283 -0.274218
-0.873407 0.406481 -0.268206
-0.830759 0.468953 -0.299870
-0.831464 0.468008 -0.299391
-0.835442 0.462621 -0.296678
-0.838684 0.458169 -0.294433
-0.834931 0.463314 -0.297034
-0.832496 0.466618 -0.298693
-0.850908 0.440845 -0.285676
-0.844193 0.450467 -0.290546
-0.570950 -0.733798 0.368179
-0.604195 -0.713277 0.355224
-0.998807 -0.012339 -0.047236
-0.988294 0.105138 -0.110548
-0.942710 0.269071 -0.197228
-0.921270 0.318629 -0.223020
-0.902510 -0.396933 0.167093
-0.960181 -0.263919 0.091651
-0.704656 -0.638631 0.309209
-0.767453 -0.579708 0.273778
-0.552503 -0.744416 0.374947
-0.533513 -0.754803 0.381624
-0.513494 -0.765185 0.388351
-0.525195 -0.759186 0.384456
-0.510085 -0.766896 0.389467
-0.505897 -0.768976 0.390824
-0.640654 -0.688545 0.339807
-0.606473 -0.711802 0.354299
-0.767224 -0.579945 0.273920
-0.721938 -0.623515 0.300057
</float_array>
          <technique_common>
            <accessor source="#transform2-lib-Normal0-array" count="84" stride="3">
              <param name="X" type="float"/>
              <param name="Y" type="float"/>
              <param name="Z" type="float"/>
            </accessor>
          </technique_common>
        </source>
        <source id="transform2-lib-UV0">
          <float_array id="transform2-lib-UV0-array" count="168">
0.000000 0.000000
1.000000 0.000000
1.000000 1.000000
0.000000 1.000000
0.485899 0.000000
0.485899 1.000000
0.255129 0.000000
0.255129 1.000000
0.104708 0.000000
0.104708 1.000000
0.036191 0.000000
0.036191 1.000000
0.017295 0.000000
0.017295 1.000000
0.056863 0.000000
0.056863 1.000000
0.079667 0.000000
0.079667 1.000000
0.161667 0.000000
0.161667 1.000000
0.132106 0.000000
0.132106 1.000000
0.192847 0.000000
0.192847 1.000000
0.224507 0.000000
0.224507 1.000000
0.380863 0.000000
0.380863 1.000000
0.310021 0.000000
0.310021 1.000000
0.283625 0.000000
0.283625 1.000000
0.334767 0.000000
0.334767 1.000000
0.358280 0.000000
0.358280 1.000000
0.424136 0.000000
0.424136 1.000000
0.402757 0.000000
0.402757 1.000000
0.445090 0.000000
0.445090 1.000000
0.465678 0.000000
0.465678 1.000000
0.681927 0.000000
0.681927 1.000000
0.581262 0.000000
0.581262 1.000000
0.525052 0.000000
0.525052 1.000000
0.505706 0.000000
0.505706 1.000000
0.544004 0.000000
0.544004 1.000000
0.562679 0.000000
0.562679 1.000000
0.618987 0.000000
0.618987 1.000000
0.599950 0.000000
0.599950 1.000000
0.638691 0.000000
0.638691 1.000000
0.659447 0.000000
0.659447 1.000000
0.837661 0.000000
0.837661 1.000000
0.736959 0.000000
0.736959 1.000000
0.707156 0.000000
0.707156 1.000000
0.771925 0.000000
0.771925 1.000000
0.806520 0.000000
0.806520 1.000000
0.921011 0.000000
0.921011 1.000000
0.866343 0.000000
0.866343 1.000000
0.893859 0.000000
0.893859 1.000000
0.948143 0.000000
0.948143 1.000000
0.974861 0.000000
0.974861 1.000000
</float_array>
          <technique_common>
            <accessor source="#transform2-lib-UV0-array" count="84" stride="2">
              <param name="S" type="float"/>
              <param name="T" type="float"/>
            </accessor>
          </technique_common>
        </source>
        <vertices id="transform2-lib-Vertex">
          <input semantic="POSITION" source="#transform2-lib-Position"/>
        </vertices>
        <polygons material="lambert1" count="82">
          <input semantic="VERTEX" offset="0" source="#transform2-lib-Vertex"/>
          <input semantic="NORMAL" offset="1" source="#transform2-lib-Normal0"/>
          <input semantic="TEXCOORD" offset="2" set="0" source="#transform2-lib-UV0"/>
          <p>82 82 82 1 1 1 2 2 2</p>
          <p>42 42 42 4 4 4 5 5 5</p>
          <p>24 24 24 6 6 6 7 7 7</p>
          <p>16 16 16 8 8 8 9 9 9</p>
          <p>12 12 12 10 10 10 11 11 11</p>
          <p>0 0 0 12 12 12 13 13 13</p>
          <p>10 10 10 14 14 14 15 15 15</p>
          <p>14 14 14 16 16 16 17 17 17</p>
          <p>20 20 20 18 18 18 19 19 19</p>
          <p>8 8 8 20 20 20 21 21 21</p>
          <p>18 18 18 22 22 22 23 23 23</p>
          <p>22 22 22 24 24 24 25 25 25</p>
          <p>34 34 34 26 26 26 27 27 27</p>
          <p>30 30 30 28 28 28 29 29 29</p>
          <p>6 6 6 30 30 30 31 31 31</p>
          <p>28 28 28 32 32 32 33 33 33</p>
          <p>32 32 32 34 34 34 35 35 35</p>
          <p>38 38 38 36 36 36 37 37 37</p>
          <p>26 26 26 38 38 38 39 39 39</p>
          <p>36 36 36 40 40 40 41 41 41</p>
          <p>40 40 40 42 42 42 43 43 43</p>
          <p>62 62 62 44 44 44 45 45 45</p>
          <p>54 54 54 46 46 46 47 47 47</p>
          <p>50 50 50 48 48 48 49 49 49</p>
          <p>4 4 4 50 50 50 51 51 51</p>
          <p>48 48 48 52 52 52 53 53 53</p>
          <p>52 52 52 54 54 54 55 55 55</p>
          <p>58 58 58 56 56 56 57 57 57</p>
          <p>46 46 46 58 58 58 59 59 59</p>
          <p>56 56 56 60 60 60 61 61 61</p>
          <p>60 60 60 62 62 62 63 63 63</p>
          <p>72 72 72 64 64 64 65 65 65</p>
          <p>68 68 68 66 66 66 67 67 67</p>
          <p>44 44 44 68 68 68 69 69 69</p>
          <p>66 66 66 70 70 70 71 71 71</p>
          <p>70 70 70 72 72 72 73 73 73</p>
          <p>78 78 78 74 74 74 75 75 75</p>
          <p>64 64 64 76 76 76 77 77 77</p>
          <p>76 76 76 78 78 78 79 79 79</p>
          <p>74 74 74 80 80 80 81 81 81</p>
          <p>80 80 80 82 82 82 83 83 83</p>
          <p>2 2 2 83 83 83 82 82 82</p>
          <p>5 5 5 43 43 43 42 42 42</p>
          <p>7 7 7 25 25 25 24 24 24</p>
          <p>9 9 9 17 17 17 16 16 16</p>
          <p>11 11 11 13 13 13 12 12 12</p>
          <p>13 13 13 3 3 3 0 0 0</p>
          <p>15 15 15 11 11 11 10 10 10</p>
          <p>17 17 17 15 15 15 14 14 14</p>
          <p>19 19 19 21 21 21 20 20 20</p>
          <p>21 21 21 9 9 9 8 8 8</p>
          <p>23 23 23 19 19 19 18 18 18</p>
          <p>25 25 25 23 23 23 22 22 22</p>
          <p>27 27 27 35 35 35 34 34 34</p>
          <p>29 29 29 31 31 31 30 30 30</p>
          <p>31 31 31 7 7 7 6 6 6</p>
          <p>33 33 33 29 29 29 28 28 28</p>
          <p>35 35 35 33 33 33 32 32 32</p>
          <p>37 37 37 39 39 39 38 38 38</p>
          <p>39 39 39 27 27 27 26 26 26</p>
          <p>41 41 41 37 37 37 36 36 36</p>
          <p>43 43 43 41 41 41 40 40 40</p>
          <p>45 45 45 63 63 63 62 62 62</p>
          <p>47 47 47 55 55 55 54 54 54</p>
          <p>49 49 49 51 51 51 50 50 50</p>
          <p>51 51 51 5 5 5 4 4 4</p>
          <p>53 53 53 49 49 49 48 48 48</p>
          <p>55 55 55 53 53 53 52 52 52</p>
          <p>57 57 57 59 59 59 58 58 58</p>
          <p>59 59 59 47 47 47 46 46 46</p>
          <p>61 61 61 57 57 57 56 56 56</p>
          <p>63 63 63 61 61 61 60 60 60</p>
          <p>65 65 65 73 73 73 72 72 72</p>
          <p>67 67 67 69 69 69 68 68 68</p>
          <p>69 69 69 45 45 45 44 44 44</p>
          <p>71 71 71 67 67 67 66 66 66</p>
          <p>73 73 73 71 71 71 70 70 70</p>
          <p>75 75 75 79 79 79 78 78 78</p>
          <p>77 77 77 65 65 65 64 64 64</p>
          <p>79 79 79 77 77 77 76 76 76</p>
          <p>81 81 81 75 75 75 74 74 74</p>
          <p>83 83 83 81 81 81 80 80 80</p>
        </polygons>
      </mesh>
    </geometry>
    <geometry id="polySurface1-lib" name="polySurface1Mesh">
      <mesh>
        <source id="polySurface1-lib-Position">
          <float_array id="polySurface1-lib-Position-array" count="540">
-81.647644 -7.954103 13.100842
-114.218399 45.846516 -11.800100
-114.148811 45.145870 -13.088598
-81.578049 -8.654749 11.812346
-112.748909 4.492901 10.104178
-112.679314 3.792255 8.815681
-102.795052 -18.012186 21.376049
-102.725456 -18.712831 20.087553
-89.662643 -15.288000 22.115986
-89.593048 -15.988646 20.827490
-84.182152 -10.686599 17.461258
-84.112564 -11.387245 16.172760
-82.820900 -9.269835 15.367606
-82.751305 -9.970482 14.079109
-85.755219 -12.185529 19.324726
-85.685631 -12.886175 18.036228
-87.577103 -13.742131 20.903679
-87.507507 -14.442778 19.615181
-94.618896 -17.889931 23.164534
-94.549309 -18.590576 21.876036
-92.020020 -16.722095 22.888527
-91.950432 -17.422743 21.600029
-97.381866 -18.600359 22.939157
-97.312271 -19.301004 21.650660
-100.165962 -18.670094 22.289574
-100.096375 -19.370741 21.001076
-111.430687 -8.369734 15.926288
-111.361099 -9.070379 14.637791
-107.159500 -14.989304 19.284679
-107.089905 -15.689950 17.996181
-105.138107 -16.716925 20.355053
-105.068512 -17.417570 19.066557
-108.872520 -12.969931 18.184801
-108.802933 -13.670577 16.896305
-110.293488 -10.744196 17.063696
-110.223892 -11.444842 15.775198
-112.856010 -3.326190 13.612038
-112.786415 -4.026837 12.323540
-112.286354 -5.886338 14.774944
-112.216759 -6.586984 13.486446
-113.130165 -0.721828 12.442154
-113.060577 -1.422474 11.153656
-113.097870 1.895880 11.270390
-113.028275 1.195234 9.981892
-99.340782 26.879293 -1.334888
-99.271194 26.178646 -2.623386
-107.112938 16.351414 4.532517
-107.043350 15.650768 3.244019
-111.113792 9.486780 7.824275
-111.044197 8.786135 6.535777
-112.077911 7.032616 8.952991
-112.008324 6.331970 7.664494
-109.926865 11.853027 6.715752
-109.857269 11.152381 5.427255
-108.577911 14.136950 5.621705
-108.508316 13.436304 4.333207
-103.982712 20.624584 2.323619
-103.913124 19.923939 1.035122
-105.570076 18.509222 3.437539
-105.500488 17.808575 2.149041
-102.383736 22.713909 1.173413
-102.314140 22.013264 -0.115084
-100.816963 24.790676 -0.033882
-100.747368 24.090031 -1.322380
-101.210480 36.003929 -9.746994
-101.140892 35.303284 -11.035491
-97.276596 31.169724 -4.479614
-97.207001 30.469078 -5.768111
-98.071671 29.001226 -2.784603
-98.002075 28.300579 -4.073100
-97.569183 33.202602 -6.434685
-97.499596 32.501957 -7.723183
-99.083176 34.777081 -8.268265
-99.013580 34.076435 -9.556763
-108.519424 39.664703 -12.304285
-108.449829 38.964058 -13.592783
-103.588654 37.118286 -10.896646
-103.519058 36.417641 -12.185143
-106.062744 38.293400 -11.751347
-105.993156 37.592751 -13.039845
-110.824539 41.352242 -12.517859
-110.754944 40.651596 -13.806356
-112.788612 43.427582 -12.347928
-112.719017 42.726936 -13.636426
-39.238415 1.774602 0.997302
-131.069595 0.818004 0.997302
-130.860336 -0.239150 0.000000
-39.029156 0.717449 0.000000
-88.496262 -2.843259 16.948320
-88.287003 -3.900413 15.951017
-65.940811 12.743200 -5.732401
-65.731560 11.686047 -6.729703
-48.934357 13.333606 5.749506
-48.725098 12.276452 4.752204
-41.592896 5.889957 6.807274
-41.383640 4.832804 5.809971
-40.170319 3.598141 4.188130
-39.961060 2.540987 3.190828
-43.727303 8.655362 8.116370
-43.518047 7.598208 7.119068
-46.322212 11.292786 7.547192
-46.112957 10.235632 6.549889
-56.784397 16.282103 -1.762065
-56.575142 15.224950 -2.759367
-51.496235 14.812929 3.403893
-51.286980 13.755775 2.406591
-54.082176 15.802691 0.832065
-53.872921 14.745538 -0.165237
-59.717072 16.103373 -4.127888
-59.507813 15.046219 -5.125190
-62.912460 14.944210 -5.703065
-62.703205 13.887056 -6.700367
-77.377724 -2.521214 6.031374
-77.168472 -3.578368 5.034072
-72.445465 4.894176 -0.978153
-72.236206 3.837022 -1.975456
-68.446732 10.153518 -4.629056
-68.237473 9.096364 -5.626359
-70.567490 7.508429 -2.962092
-70.358231 6.451275 -3.959395
-74.168755 2.340177 1.212693
-73.959503 1.283023 0.215390
-75.797333 -0.137991 3.557983
-75.588074 -1.195144 2.560681
-82.415680 -8.521978 14.174789
-82.206429 -9.579133 13.177487
-78.955284 -4.776011 8.621057
-78.746025 -5.833164 7.623754
-80.595123 -6.838954 11.333911
-80.385872 -7.896108 10.336608
-84.774300 -8.938855 16.995903
-84.565048 -9.996009 15.998600
-87.050751 -6.229064 17.778450
-86.841492 -7.286218 16.781149
-104.434135 22.285349 -13.638619
-104.224876 21.228195 -14.635922
-94.770317 15.019520 4.798293
-94.561058 13.962366 3.800990
-91.642044 6.770743 11.886601
-91.432785 5.713590 10.889299
-89.635574 0.478368 15.557151
-89.426315 -0.578786 14.559849
-90.657829 3.688313 13.843364
-90.448578 2.631160 12.846062
-92.633240 9.704784 9.721194
-92.423988 8.647631 8.723892
-93.666191 12.467173 7.357510
-93.456940 11.410019 6.360207
-98.787842 20.769295 -4.034343
-98.578583 19.712141 -5.031645
-95.974174 17.307861 2.042307
-95.764915 16.250708 1.045005
-97.305267 19.256628 -0.907437
-97.096016 18.199474 -1.904739
-100.444016 21.787401 -7.274143
-100.234764 20.730246 -8.271445
-102.308022 22.303333 -10.518818
-102.098763 21.246180 -11.516120
-120.763725 11.626997 -15.934806
-120.554466 10.569843 -16.932108
-112.774208 18.413082 -19.538008
-112.564949 17.355928 -20.535309
-106.891312 21.663860 -16.432226
-106.682060 20.606707 -17.429529
-109.714333 20.358450 -18.550327
-109.505081 19.301294 -19.547628
-115.746071 16.127352 -19.222042
-115.536812 15.070197 -20.219345
-118.408432 13.824435 -17.900330
-118.199173 12.767282 -18.897633
-126.503212 5.799151 -8.131306
-126.293953 4.741997 -9.128608
-122.862778 9.564400 -13.568781
-122.653526 8.507246 -14.566083
-124.772392 7.616001 -10.924563
-124.563141 6.558847 -11.921865
-128.120926 4.062933 -5.185803
-127.911674 3.005780 -6.183106
-129.638870 2.404370 -2.132734
-129.429626 1.347216 -3.130037
</float_array>
          <technique_common>
            <accessor source="#polySurface1-lib-Position-array" count="180" stride="3">
              <param name="X" type="float"/>
              <param name="Y" type="float"/>
              <param name="Z" type="float"/>
            </accessor>
          </technique_common>
        </source>
        <source id="polySurface1-lib-Normal0">
          <float_array id="polySurface1-lib-Normal0-array" count="540">
0.895339 -0.369197 0.249119
-0.808773 -0.533905 0.246641
-0.808770 -0.533908 0.246643
0.895342 -0.369190 0.249120
-0.978616 0.153861 -0.136522
-0.985519 0.120849 -0.118944
-0.500677 -0.771537 0.392496
-0.430064 -0.802669 0.413240
0.607931 -0.683293 0.404389
0.646261 -0.655220 0.391195
0.836000 -0.461858 0.296295
0.850110 -0.442003 0.286263
0.874630 -0.404508 0.267199
0.885210 -0.386943 0.258222
0.783626 -0.527024 0.328902
0.802886 -0.504444 0.317662
0.710908 -0.601021 0.365216
0.737838 -0.575458 0.352767
0.257949 -0.842872 0.472259
0.332676 -0.820821 0.464306
0.461162 -0.768832 0.442975
0.515807 -0.740631 0.430592
0.001920 -0.878472 0.477790
0.092767 -0.872618 0.479512
-0.269815 -0.851975 0.448707
-0.179385 -0.868300 0.462467
-0.943168 -0.310664 0.117987
-0.931038 -0.339336 0.134235
-0.771718 -0.575272 0.271135
-0.740230 -0.606647 0.289895
-0.663062 -0.672076 0.329639
-0.616420 -0.705255 0.350202
-0.847487 -0.484201 0.217522
-0.825091 -0.513869 0.234868
-0.902561 -0.396840 0.167039
-0.886089 -0.425612 0.183576
-0.990810 -0.133879 0.019285
-0.985788 -0.164093 0.035982
-0.972250 -0.223526 0.069031
-0.963756 -0.252753 0.085383
-0.998660 -0.040901 -0.031694
-0.997277 -0.072293 -0.014553
-0.994938 0.055382 -0.083851
-0.997533 0.022929 -0.066345
-0.884238 0.388598 -0.259065
-0.871183 0.410036 -0.270018
-0.847444 0.445844 -0.288204
-0.852902 0.437936 -0.284201
-0.919511 0.322336 -0.224942
-0.929957 0.299587 -0.213136
-0.951086 0.246927 -0.185642
-0.961305 0.216889 -0.169856
-0.890290 0.378167 -0.253719
-0.899526 0.361571 -0.245194
-0.865935 0.418283 -0.274218
-0.873407 0.406481 -0.268206
-0.830759 0.468953 -0.299870
-0.831464 0.468008 -0.299391
-0.835442 0.462621 -0.296678
-0.838684 0.458169 -0.294433
-0.834931 0.463314 -0.297034
-0.832496 0.466618 -0.298693
-0.850908 0.440845 -0.285676
-0.844193 0.450467 -0.290546
-0.570950 -0.733798 0.368179
-0.604195 -0.713277 0.355224
-0.998807 -0.012339 -0.047236
-0.988294 0.105138 -0.110548
-0.942710 0.269071 -0.197228
-0.921270 0.318629 -0.223020
-0.902510 -0.396933 0.167093
-0.960181 -0.263919 0.091651
-0.704656 -0.638631 0.309209
-0.767453 -0.579708 0.273778
-0.552503 -0.744416 0.374947
-0.533513 -0.754803 0.381624
-0.513494 -0.765185 0.388351
-0.525195 -0.759186 0.384456
-0.510085 -0.766896 0.389467
-0.505897 -0.768976 0.390824
-0.640654 -0.688545 0.339807
-0.606473 -0.711802 0.354299
-0.767224 -0.579945 0.273920
-0.721938 -0.623515 0.300057
0.920934 -0.155025 0.357558
0.925640 -0.146087 0.349069
0.925641 -0.146087 0.349066
0.920933 -0.155033 0.357558
-0.943381 -0.306469 0.126916
-0.932293 -0.328123 0.152197
0.607111 -0.478386 0.634479
0.513540 -0.532844 0.672572
-0.716299 -0.548598 0.431226
-0.718474 -0.547239 0.429330
-0.226347 -0.691737 0.685760
0.070635 -0.677068 0.732522
0.577573 -0.496778 0.647782
0.788250 -0.332467 0.517810
-0.618263 -0.600627 0.506950
-0.551566 -0.627560 0.549493
-0.707432 -0.554033 0.438848
-0.693956 -0.561987 0.450107
-0.501568 -0.644117 0.577532
-0.553841 -0.626737 0.548143
-0.690557 -0.563938 0.452886
-0.702439 -0.557022 0.443064
-0.629357 -0.595547 0.499233
-0.654291 -0.583430 0.481158
-0.219382 -0.692126 0.687629
-0.336866 -0.680532 0.650690
0.250779 -0.637561 0.728441
0.073576 -0.676611 0.732655
0.901964 -0.188133 0.388674
0.901112 -0.189525 0.389971
0.867740 -0.239227 0.435657
0.858759 -0.251270 0.446539
0.765854 -0.354499 0.536468
0.729811 -0.387121 0.563484
0.833577 -0.282708 0.474579
0.816876 -0.301947 0.491468
0.886843 -0.211850 0.410644
0.881691 -0.219494 0.417665
0.897501 -0.195347 0.395387
0.894708 -0.199767 0.399488
0.787902 -0.332825 0.518111
0.834699 -0.281376 0.473397
0.899573 -0.192021 0.392297
0.901199 -0.189380 0.389840
0.883254 -0.217198 0.415557
0.890723 -0.205956 0.405210
-0.160526 -0.693948 0.701903
0.388967 -0.590274 0.707305
-0.831470 -0.459369 0.312472
-0.705499 -0.555197 0.440485
-0.559589 -0.624629 0.544700
-0.619925 -0.599879 0.505804
-0.940601 -0.312156 0.133523
-0.944603 -0.303910 0.123951
-0.961407 -0.263854 0.077962
-0.962039 -0.262119 0.075993
-0.958712 -0.271023 0.086129
-0.956058 -0.277759 0.093825
-0.962199 -0.261676 0.075491
-0.961731 -0.262965 0.076958
-0.957732 -0.273545 0.089006
-0.959268 -0.269571 0.084470
-0.951098 -0.289606 0.107428
-0.953673 -0.283568 0.100488
-0.861700 -0.427878 0.272751
-0.876021 -0.411176 0.252035
-0.924449 -0.342019 0.168576
-0.930591 -0.331227 0.155846
-0.899527 -0.380517 0.214608
-0.909028 -0.366705 0.197979
-0.804477 -0.484028 0.344286
-0.826173 -0.464438 0.318961
-0.713428 -0.550374 0.433714
-0.748605 -0.527322 0.401899
0.809297 -0.310311 0.498743
0.790429 -0.330239 0.515911
0.392363 -0.588903 0.706573
0.287496 -0.626519 0.724445
-0.301837 -0.685142 0.662929
-0.402012 -0.669171 0.624977
0.054688 -0.679439 0.731691
-0.073993 -0.692046 0.718051
0.615571 -0.472892 0.630433
0.554717 -0.510223 0.657237
0.739751 -0.378441 0.556372
0.706931 -0.406256 0.578969
0.897877 -0.194748 0.394830
0.892257 -0.203590 0.403025
0.851370 -0.260837 0.455119
0.839553 -0.275532 0.468223
0.878821 -0.223666 0.421482
0.870903 -0.234873 0.431697
0.911843 -0.171428 0.373034
0.907642 -0.178664 0.379823
0.922480 -0.152125 0.354807
0.919245 -0.158158 0.360519
</float_array>
          <technique_common>
            <accessor source="#polySurface1-lib-Normal0-array" count="180" stride="3">
              <param name="X" type="float"/>
              <param name="Y" type="float"/>
              <param name="Z" type="float"/>
            </accessor>
          </technique_common>
        </source>
        <source id="polySurface1-lib-UV0">
          <float_array id="polySurface1-lib-UV0-array" count="360">
0.000000 0.000000
1.000000 0.000000
1.000000 1.000000
0.000000 1.000000
0.485899 0.000000
0.485899 1.000000
0.255129 0.000000
0.255129 1.000000
0.104708 0.000000
0.104708 1.000000
0.036191 0.000000
0.036191 1.000000
0.017295 0.000000
0.017295 1.000000
0.056863 0.000000
0.056863 1.000000
0.079667 0.000000
0.079667 1.000000
0.161667 0.000000
0.161667 1.000000
0.132106 0.000000
0.132106 1.000000
0.192847 0.000000
0.192847 1.000000
0.224507 0.000000
0.224507 1.000000
0.380863 0.000000
0.380863 1.000000
0.310021 0.000000
0.310021 1.000000
0.283625 0.000000
0.283625 1.000000
0.334767 0.000000
0.334767 1.000000
0.358280 0.000000
0.358280 1.000000
0.424136 0.000000
0.424136 1.000000
0.402757 0.000000
0.402757 1.000000
0.445090 0.000000
0.445090 1.000000
0.465678 0.000000
0.465678 1.000000
0.681927 0.000000
0.681927 1.000000
0.581262 0.000000
0.581262 1.000000
0.525052 0.000000
0.525052 1.000000
0.505706 0.000000
0.505706 1.000000
0.544004 0.000000
0.544004 1.000000
0.562679 0.000000
0.562679 1.000000
0.618987 0.000000
0.618987 1.000000
0.599950 0.000000
0.599950 1.000000
0.638691 0.000000
0.638691 1.000000
0.659447 0.000000
0.659447 1.000000
0.837661 0.000000
0.837661 1.000000
0.736959 0.000000
0.736959 1.000000
0.707156 0.000000
0.707156 1.000000
0.771925 0.000000
0.771925 1.000000
0.806520 0.000000
0.806520 1.000000
0.921011 0.000000
0.921011 1.000000
0.866343 0.000000
0.866343 1.000000
0.893859 0.000000
0.893859 1.000000
0.948143 0.000000
0.948143 1.000000
0.974861 0.000000
0.974861 1.000000
0.992216 0.000000
1.000000 0.000000
1.000000 1.000000
0.550250 0.000000
0.580445 0.000000
0.580445 1.000000
0.247119 0.000000
0.275578 0.000000
0.275578 1.000000
0.093914 0.000000
0.120186 0.000000
0.120186 1.000000
0.016698 0.000000
0.038059 0.000000
0.038059 1.000000
0.000000 0.000000
0.016698 1.000000
0.065187 0.000000
0.065187 1.000000
0.093914 1.000000
0.167992 0.000000
0.192124 0.000000
0.192124 1.000000
0.144427 0.000000
0.144427 1.000000
0.167992 1.000000
0.218217 0.000000
0.218217 1.000000
0.247119 1.000000
0.379873 0.000000
0.399031 0.000000
0.399031 1.000000
0.321880 0.000000
0.341889 0.000000
0.341889 1.000000
0.300178 0.000000
0.300178 1.000000
0.321880 1.000000
0.361014 0.000000
0.361014 1.000000
0.379873 1.000000
0.441366 0.000000
0.467980 0.000000
0.467980 1.000000
0.419156 0.000000
0.419156 1.000000
0.441366 1.000000
0.506733 0.000000
0.506733 1.000000
0.550250 1.000000
0.796899 0.000000
0.817569 0.000000
0.817569 1.000000
0.683713 0.000000
0.702098 0.000000
0.702098 1.000000
0.626213 0.000000
0.646137 0.000000
0.646137 1.000000
0.604735 0.000000
0.604735 1.000000
0.626213 1.000000
0.665157 0.000000
0.665157 1.000000
0.683713 1.000000
0.739149 0.000000
0.758002 0.000000
0.758002 1.000000
0.720530 0.000000
0.720530 1.000000
0.739149 1.000000
0.777166 0.000000
0.777166 1.000000
0.796899 1.000000
0.925142 0.000000
0.940227 0.000000
0.940227 1.000000
0.862823 0.000000
0.886149 0.000000
0.886149 1.000000
0.839551 0.000000
0.839551 1.000000
0.862823 1.000000
0.907277 0.000000
0.907277 1.000000
0.925142 1.000000
0.964569 0.000000
0.974622 0.000000
0.974622 1.000000
0.953168 0.000000
0.953168 1.000000
0.964569 1.000000
0.983794 0.000000
0.983794 1.000000
0.992216 1.000000
0.000000 1.000000
</float_array>
          <technique_common>
            <accessor source="#polySurface1-lib-UV0-array" count="180" stride="2">
              <param name="S" type="float"/>
              <param name="T" type="float"/>
            </accessor>
          </technique_common>
        </source>
        <vertices id="polySurface1-lib-Vertex">
          <input semantic="POSITION" source="#polySurface1-lib-Position"/>
        </vertices>
        <polygons material="lambert2" count="176">
          <input semantic="VERTEX" offset="0" source="#polySurface1-lib-Vertex"/>
          <input semantic="NORMAL" offset="1" source="#polySurface1-lib-Normal0"/>
          <input semantic="TEXCOORD" offset="2" set="0" source="#polySurface1-lib-UV0"/>
          <p>82 82 82 1 1 1 2 2 2</p>
          <p>42 42 42 4 4 4 5 5 5</p>
          <p>24 24 24 6 6 6 7 7 7</p>
          <p>16 16 16 8 8 8 9 9 9</p>
          <p>12 12 12 10 10 10 11 11 11</p>
          <p>0 0 0 12 12 12 13 13 13</p>
          <p>10 10 10 14 14 14 15 15 15</p>
          <p>14 14 14 16 16 16 17 17 17</p>
          <p>20 20 20 18 18 18 19 19 19</p>
          <p>8 8 8 20 20 20 21 21 21</p>
          <p>18 18 18 22 22 22 23 23 23</p>
          <p>22 22 22 24 24 24 25 25 25</p>
          <p>34 34 34 26 26 26 27 27 27</p>
          <p>30 30 30 28 28 28 29 29 29</p>
          <p>6 6 6 30 30 30 31 31 31</p>
          <p>28 28 28 32 32 32 33 33 33</p>
          <p>32 32 32 34 34 34 35 35 35</p>
          <p>38 38 38 36 36 36 37 37 37</p>
          <p>26 26 26 38 38 38 39 39 39</p>
          <p>36 36 36 40 40 40 41 41 41</p>
          <p>40 40 40 42 42 42 43 43 43</p>
          <p>62 62 62 44 44 44 45 45 45</p>
          <p>54 54 54 46 46 46 47 47 47</p>
          <p>50 50 50 48 48 48 49 49 49</p>
          <p>4 4 4 50 50 50 51 51 51</p>
          <p>48 48 48 52 52 52 53 53 53</p>
          <p>52 52 52 54 54 54 55 55 55</p>
          <p>58 58 58 56 56 56 57 57 57</p>
          <p>46 46 46 58 58 58 59 59 59</p>
          <p>56 56 56 60 60 60 61 61 61</p>
          <p>60 60 60 62 62 62 63 63 63</p>
          <p>72 72 72 64 64 64 65 65 65</p>
          <p>68 68 68 66 66 66 67 67 67</p>
          <p>44 44 44 68 68 68 69 69 69</p>
          <p>66 66 66 70 70 70 71 71 71</p>
          <p>70 70 70 72 72 72 73 73 73</p>
          <p>78 78 78 74 74 74 75 75 75</p>
          <p>64 64 64 76 76 76 77 77 77</p>
          <p>76 76 76 78 78 78 79 79 79</p>
          <p>74 74 74 80 80 80 81 81 81</p>
          <p>80 80 80 82 82 82 83 83 83</p>
          <p>2 2 2 83 83 83 82 82 82</p>
          <p>5 5 5 43 43 43 42 42 42</p>
          <p>7 7 7 25 25 25 24 24 24</p>
          <p>9 9 9 17 17 17 16 16 16</p>
          <p>11 11 11 13 13 13 12 12 12</p>
          <p>13 13 13 3 3 3 0 0 0</p>
          <p>15 15 15 11 11 11 10 10 10</p>
          <p>17 17 17 15 15 15 14 14 14</p>
          <p>19 19 19 21 21 21 20 20 20</p>
          <p>21 21 21 9 9 9 8 8 8</p>
          <p>23 23 23 19 19 19 18 18 18</p>
          <p>25 25 25 23 23 23 22 22 22</p>
          <p>27 27 27 35 35 35 34 34 34</p>
          <p>29 29 29 31 31 31 30 30 30</p>
          <p>31 31 31 7 7 7 6 6 6</p>
          <p>33 33 33 29 29 29 28 28 28</p>
          <p>35 35 35 33 33 33 32 32 32</p>
          <p>37 37 37 39 39 39 38 38 38</p>
          <p>39 39 39 27 27 27 26 26 26</p>
          <p>41 41 41 37 37 37 36 36 36</p>
          <p>43 43 43 41 41 41 40 40 40</p>
          <p>45 45 45 63 63 63 62 62 62</p>
          <p>47 47 47 55 55 55 54 54 54</p>
          <p>49 49 49 51 51 51 50 50 50</p>
          <p>51 51 51 5 5 5 4 4 4</p>
          <p>53 53 53 49 49 49 48 48 48</p>
          <p>55 55 55 53 53 53 52 52 52</p>
          <p>57 57 57 59 59 59 58 58 58</p>
          <p>59 59 59 47 47 47 46 46 46</p>
          <p>61 61 61 57 57 57 56 56 56</p>
          <p>63 63 63 61 61 61 60 60 60</p>
          <p>65 65 65 73 73 73 72 72 72</p>
          <p>67 67 67 69 69 69 68 68 68</p>
          <p>69 69 69 45 45 45 44 44 44</p>
          <p>71 71 71 67 67 67 66 66 66</p>
          <p>73 73 73 71 71 71 70 70 70</p>
          <p>75 75 75 79 79 79 78 78 78</p>
          <p>77 77 77 65 65 65 64 64 64</p>
          <p>79 79 79 77 77 77 76 76 76</p>
          <p>81 81 81 75 75 75 74 74 74</p>
          <p>83 83 83 81 81 81 80 80 80</p>
          <p>178 178 84 85 85 85 86 86 86</p>
          <p>132 132 87 88 88 88 89 89 89</p>
          <p>110 110 90 90 90 91 91 91 92</p>
          <p>100 100 93 92 92 94 93 93 95</p>
          <p>96 96 96 94 94 97 95 95 98</p>
          <p>84 84 99 96 96 96 97 97 100</p>
          <p>94 94 97 98 98 101 99 99 102</p>
          <p>98 98 101 100 100 93 101 101 103</p>
          <p>106 106 104 102 102 105 103 103 106</p>
          <p>92 92 94 104 104 107 105 105 108</p>
          <p>104 104 107 106 106 104 107 107 109</p>
          <p>102 102 105 108 108 110 109 109 111</p>
          <p>108 108 110 110 110 90 111 111 112</p>
          <p>122 122 113 112 112 114 113 113 115</p>
          <p>118 118 116 114 114 117 115 115 118</p>
          <p>90 90 91 116 116 119 117 117 120</p>
          <p>116 116 119 118 118 116 119 119 121</p>
          <p>114 114 117 120 120 122 121 121 123</p>
          <p>120 120 122 122 122 113 123 123 124</p>
          <p>128 128 125 124 124 126 125 125 127</p>
          <p>112 112 114 126 126 128 127 127 129</p>
          <p>126 126 128 128 128 125 129 129 130</p>
          <p>124 124 126 130 130 131 131 131 132</p>
          <p>130 130 131 132 132 87 133 133 133</p>
          <p>156 156 134 134 134 135 135 135 136</p>
          <p>146 146 137 136 136 138 137 137 139</p>
          <p>142 142 140 138 138 141 139 139 142</p>
          <p>88 88 88 140 140 143 141 141 144</p>
          <p>140 140 143 142 142 140 143 143 145</p>
          <p>138 138 141 144 144 146 145 145 147</p>
          <p>144 144 146 146 146 137 147 147 148</p>
          <p>152 152 149 148 148 150 149 149 151</p>
          <p>136 136 138 150 150 152 151 151 153</p>
          <p>150 150 152 152 152 149 153 153 154</p>
          <p>148 148 150 154 154 155 155 155 156</p>
          <p>154 154 155 156 156 134 157 157 157</p>
          <p>168 168 158 158 158 159 159 159 160</p>
          <p>164 164 161 160 160 162 161 161 163</p>
          <p>134 134 135 162 162 164 163 163 165</p>
          <p>162 162 164 164 164 161 165 165 166</p>
          <p>160 160 162 166 166 167 167 167 168</p>
          <p>166 166 167 168 168 158 169 169 169</p>
          <p>174 174 170 170 170 171 171 171 172</p>
          <p>158 158 159 172 172 173 173 173 174</p>
          <p>172 172 173 174 174 170 175 175 175</p>
          <p>170 170 171 176 176 176 177 177 177</p>
          <p>176 176 176 178 178 84 179 179 178</p>
          <p>86 86 86 179 179 178 178 178 84</p>
          <p>89 89 89 133 133 133 132 132 87</p>
          <p>91 91 92 111 111 112 110 110 90</p>
          <p>93 93 95 101 101 103 100 100 93</p>
          <p>95 95 98 97 97 100 96 96 96</p>
          <p>97 97 100 87 87 179 84 84 99</p>
          <p>99 99 102 95 95 98 94 94 97</p>
          <p>101 101 103 99 99 102 98 98 101</p>
          <p>103 103 106 107 107 109 106 106 104</p>
          <p>105 105 108 93 93 95 92 92 94</p>
          <p>107 107 109 105 105 108 104 104 107</p>
          <p>109 109 111 103 103 106 102 102 105</p>
          <p>111 111 112 109 109 111 108 108 110</p>
          <p>113 113 115 123 123 124 122 122 113</p>
          <p>115 115 118 119 119 121 118 118 116</p>
          <p>117 117 120 91 91 92 90 90 91</p>
          <p>119 119 121 117 117 120 116 116 119</p>
          <p>121 121 123 115 115 118 114 114 117</p>
          <p>123 123 124 121 121 123 120 120 122</p>
          <p>125 125 127 129 129 130 128 128 125</p>
          <p>127 127 129 113 113 115 112 112 114</p>
          <p>129 129 130 127 127 129 126 126 128</p>
          <p>131 131 132 125 125 127 124 124 126</p>
          <p>133 133 133 131 131 132 130 130 131</p>
          <p>135 135 136 157 157 157 156 156 134</p>
          <p>137 137 139 147 147 148 146 146 137</p>
          <p>139 139 142 143 143 145 142 142 140</p>
          <p>141 141 144 89 89 89 88 88 88</p>
          <p>143 143 145 141 141 144 140 140 143</p>
          <p>145 145 147 139 139 142 138 138 141</p>
          <p>147 147 148 145 145 147 144 144 146</p>
          <p>149 149 151 153 153 154 152 152 149</p>
          <p>151 151 153 137 137 139 136 136 138</p>
          <p>153 153 154 151 151 153 150 150 152</p>
          <p>155 155 156 149 149 151 148 148 150</p>
          <p>157 157 157 155 155 156 154 154 155</p>
          <p>159 159 160 169 169 169 168 168 158</p>
          <p>161 161 163 165 165 166 164 164 161</p>
          <p>163 163 165 135 135 136 134 134 135</p>
          <p>165 165 166 163 163 165 162 162 164</p>
          <p>167 167 168 161 161 163 160 160 162</p>
          <p>169 169 169 167 167 168 166 166 167</p>
          <p>171 171 172 175 175 175 174 174 170</p>
          <p>173 173 174 159 159 160 158 158 159</p>
          <p>175 175 175 173 173 174 172 172 173</p>
          <p>177 177 177 171 171 172 170 170 171</p>
          <p>179 179 178 177 177 177 176 176 176</p>
        </polygons>
      </mesh>
    </geometry>
  </library_geometries>
  <library_visual_scenes>
    <visual_scene id="RootNode" name="RootNode">
      <node id="extrudedSurface8" name="extrudedSurface8">
        <node id="transform1" name="transform1">
          <instance_geometry url="#transform1-lib">
            <bind_material>
              <technique_common>
                <instance_material symbol="lambert1" target="#lambert1"/>
              </technique_common>
            </bind_material>
          </instance_geometry>
        </node>
      </node>
      <node id="extrudedSurface9" name="extrudedSurface9">
        <node id="transform2" name="transform2">
          <instance_geometry url="#transform2-lib">
            <bind_material>
              <technique_common>
                <instance_material symbol="lambert1" target="#lambert1"/>
              </technique_common>
            </bind_material>
          </instance_geometry>
        </node>
      </node>
      <node id="polySurface1" name="polySurface1">
        <instance_geometry url="#polySurface1-lib">
          <bind_material>
            <technique_common>
              <instance_material symbol="lambert2" target="#lambert2"/>
            </technique_common>
          </bind_material>
        </instance_geometry>
      </node>
    </visual_scene>
  </library_visual_scenes>
  <scene>
    <instance_visual_scene url="#RootNode"/>
  </scene>
</COLLADA>

