<?xml version="1.0" encoding="utf-8"?>
<COLLADA xmlns="http://www.collada.org/2005/11/COLLADASchema" version="1.4.0">
  <asset>
    <contributor>
      <author></author>
      <authoring_tool>FBX COLLADA exporter</authoring_tool>
      <comments></comments>
    </contributor>
    <created>2010-12-17T06:45:22Z</created>
    <modified>2010-12-17T06:45:22Z</modified>
    <revision></revision>
    <title></title>
    <subject></subject>
    <keywords></keywords>
    <unit meter="0.010000"/>
    <up_axis>Y_UP</up_axis>
  </asset>
  <library_materials>
    <material id="lambert1" name="lambert1">
      <instance_effect url="#lambert1-fx"/>
    </material>
  </library_materials>
  <library_effects>
    <effect id="lambert1-fx" name="lambert1">
      <profile_COMMON>
        <technique sid="standard">
          <lambert>
            <emission>
              <color sid="emission">0.000000  0.000000 0.000000 1.000000</color>
            </emission>
            <ambient>
              <color sid="ambient">0.000000  0.000000 0.000000 1.000000</color>
            </ambient>
            <diffuse>
              <color sid="diffuse">0.400000  0.400000 0.400000 1.000000</color>
            </diffuse>
            <transparent>
              <color sid="transparent">0.000000  0.000000 0.000000 1.000000</color>
            </transparent>
            <transparency>
              <float sid="transparency">1.000000</float>
            </transparency>
          </lambert>
        </technique>
      </profile_COMMON>
    </effect>
  </library_effects>
  <library_geometries>
    <geometry id="polySurface1-lib" name="polySurface1Mesh">
      <mesh>
        <source id="polySurface1-lib-Position">
          <float_array id="polySurface1-lib-Position-array" count="486">
-30.228329 87.523491 20.677439
-25.151686 46.873272 0.936955
-23.764301 47.352612 0.899946
-28.840944 88.002831 20.640430
-55.605576 67.462593 7.722270
-54.218189 67.941933 7.685261
-48.350063 78.946671 4.614032
-46.962677 79.426010 4.577024
-38.451035 84.092560 11.098862
-37.063648 84.571899 11.061853
-33.393471 86.260529 16.686031
-32.006088 86.739868 16.649023
-31.794968 86.906158 18.660013
-30.407581 87.385498 18.623005
-35.029926 85.581398 14.761633
-33.642540 86.060738 14.724625
-36.709900 84.862900 12.897753
-35.322517 85.342239 12.860744
-42.134380 82.358376 7.821414
-40.746998 82.837715 7.784406
-40.263050 83.259033 9.388659
-38.875668 83.738373 9.351651
-44.115040 81.352097 6.421364
-42.727654 81.831436 6.384356
-46.189133 80.225365 5.301497
-44.801750 80.704704 5.264489
-55.818230 72.120155 11.215999
-54.430847 72.599495 11.178990
-52.478127 76.001862 5.426277
-51.090740 76.481201 5.389268
-50.522877 77.506935 4.593145
-49.135490 77.986275 4.556137
-54.003078 74.580635 6.993313
-52.615696 75.059975 6.956305
-55.086811 73.299080 8.996716
-53.699425 73.778419 8.959707
-56.431618 69.262131 15.226070
-55.044235 69.741470 15.189062
-56.271759 70.951073 13.511771
-54.884373 71.430412 13.474763
-56.174942 68.290352 12.861431
-54.787560 68.769691 12.824423
-55.898289 67.836090 10.297625
-54.510902 68.315430 10.260616
-48.396839 54.564205 3.684900
-47.009453 55.043545 3.647891
-53.406998 63.445244 -4.002350
-52.019615 63.924583 -4.039358
-54.948586 66.651711 2.591132
-53.561199 67.131050 2.554124
-55.291843 67.086357 5.150213
-53.904457 67.565689 5.113204
-54.559761 66.085464 0.067591
-53.172375 66.564804 0.030583
-54.083275 65.217590 -2.355047
-52.695889 65.696930 -2.392055
-52.039478 59.330441 -1.300734
-50.652092 59.809776 -1.337742
-52.747700 61.176903 -3.010788
-51.360313 61.656242 -3.047796
-51.120605 57.652069 0.487153
-49.733219 58.131409 0.450145
-49.922432 56.068287 2.187487
-48.535046 56.547626 2.150479
-37.115837 49.128181 5.599098
-35.728451 49.607521 5.562090
-44.379948 51.900597 5.644006
-42.992561 52.379936 5.606997
-46.534454 53.162731 4.865526
-45.147068 53.642071 4.828517
-42.036961 50.811272 5.994202
-40.649574 51.290611 5.957194
-39.589859 49.891644 5.956951
-38.202473 50.370983 5.919943
-32.211708 47.970493 4.176648
-30.824320 48.449833 4.139639
-34.654469 48.496468 4.988721
-33.267086 48.975807 4.951713
-29.830540 47.537762 3.217999
-28.443155 48.017101 3.180990
-27.474203 47.175304 2.129383
-26.086817 47.654644 2.092375
-14.521634 26.463850 1.375193
-26.326115 89.166321 1.375193
-26.831770 89.070763 -0.000000
-15.027289 26.368299 0.000000
-33.449471 55.735111 5.915212
-33.955128 55.639561 4.540018
-19.906042 42.899658 0.469632
-20.411697 42.804108 -0.905561
-16.478117 33.835121 -0.391593
-16.983772 33.739571 -1.766786
-15.480862 30.100109 0.255453
-15.986517 30.004559 -1.119740
-15.000791 28.266016 0.762557
-15.506446 28.170465 -0.612636
-15.969450 31.958567 -0.133150
-16.475105 31.863014 -1.508344
-17.614370 37.584507 -0.478712
-18.120026 37.488953 -1.853905
-17.020348 35.715015 -0.509053
-17.526003 35.619461 -1.884247
-18.279423 39.420494 -0.299402
-18.785078 39.324940 -1.674596
-19.036764 41.200237 0.022006
-19.542419 41.104687 -1.353188
-26.056078 49.768360 3.630302
-26.561733 49.672810 2.255108
-22.033104 45.972870 1.639704
-22.538759 45.877319 0.264511
-20.902262 44.496403 1.019031
-21.407917 44.400848 -0.356162
-23.290174 47.326187 2.299551
-23.795830 47.230633 0.924357
-24.640306 48.581394 2.970541
-25.145962 48.485844 1.595348
-29.009249 52.053204 4.834757
-29.514904 51.957649 3.459564
-27.517748 50.915974 4.258802
-28.023403 50.820423 2.883608
-30.513380 53.210697 5.331288
-31.019035 53.115147 3.956094
-32.006680 54.423870 5.710528
-32.512337 54.328316 4.335335
-34.963787 72.733368 -0.220523
-35.469444 72.637817 -1.595716
-37.008297 63.844940 2.818342
-37.513950 63.749390 1.443149
-35.814220 58.782795 5.446569
-36.319874 58.687241 4.071375
-34.763920 57.186230 5.859396
-35.269577 57.090675 4.484202
-36.511730 60.457645 4.709686
-37.017387 60.362095 3.334493
-36.889549 62.148617 3.795291
-37.395206 62.053066 2.420097
-36.643398 67.294922 1.000227
-37.149052 67.199371 -0.374966
-36.915661 65.555092 1.863032
-37.421318 65.459541 0.487839
-36.212692 69.076614 0.305056
-36.718346 68.981064 -1.070138
-35.642918 70.899185 -0.133906
-36.148571 70.803635 -1.509100
-30.942221 81.138092 2.720894
-31.447876 81.042542 1.345701
-33.447144 76.227806 0.661573
-33.952801 76.132248 -0.713620
-34.221333 74.519516 0.088102
-34.726990 74.423958 -1.287092
-32.646988 77.878174 1.358106
-33.152641 77.782623 -0.017088
-31.815069 79.504311 2.074702
-32.320724 79.408760 0.699508
-29.057783 84.497765 3.379210
-29.563438 84.402214 2.004017
-30.021454 82.802513 3.196383
-30.527109 82.706963 1.821190
-28.083591 86.178284 3.148084
-28.589247 86.082733 1.772891
-27.157980 87.755936 2.457707
-27.663635 87.660378 1.082514
</float_array>
          <technique_common>
            <accessor source="#polySurface1-lib-Position-array" count="162" stride="3">
              <param name="X" type="float"/>
              <param name="Y" type="float"/>
              <param name="Z" type="float"/>
            </accessor>
          </technique_common>
        </source>
        <source id="polySurface1-lib-Normal0">
          <float_array id="polySurface1-lib-Normal0-array" count="486">
0.327190 -0.944314 0.034876
0.256855 -0.691291 0.675383
0.256855 -0.691290 0.675384
0.327191 -0.944314 0.034873
0.325706 -0.929252 0.174371
0.325750 -0.929471 0.173117
0.150412 -0.364393 0.919018
0.229572 -0.605641 0.761903
0.327279 -0.939351 0.102506
0.327349 -0.940188 0.094287
0.327347 -0.943532 0.050910
0.327319 -0.943729 0.047302
0.327258 -0.944056 0.040755
0.327225 -0.944189 0.037815
0.327411 -0.942738 0.063618
0.327394 -0.943040 0.059067
0.327417 -0.941478 0.080101
0.327426 -0.941964 0.074136
0.325311 -0.927252 0.185409
0.325978 -0.930672 0.166096
0.326790 -0.935443 0.134742
0.327012 -0.937016 0.122738
0.320379 -0.905919 0.276890
0.322674 -0.915338 0.240911
0.297960 -0.825378 0.479552
0.309128 -0.864055 0.397303
-0.292662 0.876572 0.382061
-0.293546 0.878694 0.376466
-0.255592 0.783508 0.566381
-0.234976 0.729688 0.642138
-0.131516 0.448898 0.883852
-0.029714 0.162154 0.986318
-0.284755 0.857300 0.428896
-0.279390 0.844003 0.457821
-0.292916 0.877182 0.380464
-0.291383 0.873482 0.390032
0.216291 -0.564525 0.796574
-0.077239 0.297042 0.951735
-0.250762 0.770994 0.585394
-0.273161 0.828387 0.489037
0.321272 -0.909515 0.263757
0.316320 -0.890239 0.327746
0.325478 -0.928087 0.180881
0.325138 -0.926406 0.189889
-0.163867 0.538124 0.826783
-0.174110 0.566145 0.805708
0.009076 0.050834 0.998666
0.138259 -0.328023 0.934497
0.322927 -0.916420 0.236417
0.323866 -0.920523 0.218512
0.325040 -0.925953 0.192249
0.325363 -0.927526 0.183943
0.315677 -0.887838 0.334800
0.319065 -0.900735 0.294745
0.265124 -0.717648 0.643965
0.292369 -0.806552 0.513803
-0.203879 0.646840 0.734869
-0.199830 0.635936 0.745422
-0.167080 0.546928 0.820338
-0.136225 0.461948 0.876383
-0.203934 0.646985 0.734726
-0.205911 0.652303 0.729453
-0.190149 0.609767 0.769433
-0.196097 0.625859 0.754881
0.124700 -0.287612 0.949594
0.106130 -0.232538 0.966780
-0.067650 0.269961 0.960492
-0.087851 0.326924 0.940958
-0.123205 0.425808 0.896386
-0.138511 0.468278 0.872657
-0.001640 0.081694 0.996656
-0.024565 0.147440 0.988766
0.065527 -0.113114 0.991419
0.043404 -0.048584 0.997876
0.206853 -0.535491 0.818817
0.196345 -0.503325 0.841494
0.171704 -0.428488 0.887083
0.157407 -0.385395 0.909227
0.232535 -0.614862 0.753573
0.224884 -0.591092 0.774621
0.251390 -0.673983 0.694658
0.245745 -0.656191 0.713458
-0.927970 -0.127716 0.350086
-0.749196 0.620246 0.232378
-0.749196 0.620246 0.232379
-0.927970 -0.127716 0.350086
-0.683563 -0.666443 0.297649
-0.654201 -0.698883 0.289107
-0.769618 -0.551761 0.321323
-0.786475 -0.524795 0.325648
-0.909031 -0.226242 0.349968
-0.912131 -0.213034 0.350190
-0.922633 -0.161058 0.350441
-0.923988 -0.153200 0.350393
-0.926213 -0.139465 0.350256
-0.927108 -0.133594 0.350177
-0.917216 -0.189517 0.350426
-0.919268 -0.179220 0.350466
-0.878559 -0.329345 0.345928
-0.885395 -0.309250 0.347045
-0.896738 -0.272566 0.348666
-0.901385 -0.256021 0.349226
-0.852419 -0.396380 0.340975
-0.862157 -0.372944 0.342927
-0.816415 -0.471798 0.332975
-0.829637 -0.445851 0.336035
-0.535190 -0.806020 0.252792
-0.541544 -0.801132 0.254790
-0.651668 -0.701552 0.288363
-0.672268 -0.679257 0.294390
-0.712923 -0.630965 0.305982
-0.732872 -0.604868 0.311503
-0.598162 -0.753690 0.272311
-0.614476 -0.738610 0.277263
-0.559214 -0.787094 0.260311
-0.570446 -0.777819 0.263796
-0.532259 -0.808248 0.251866
-0.528351 -0.811189 0.250633
-0.525888 -0.813027 0.249856
-0.527345 -0.811941 0.250317
-0.557019 -0.788875 0.259626
-0.546636 -0.797155 0.256384
-0.605239 -0.747232 0.274464
-0.586458 -0.764101 0.268731
-0.893948 0.327494 0.305949
-0.891481 0.335485 0.304485
-0.924745 0.195679 0.326430
-0.929817 0.161557 0.330666
-0.887157 -0.303849 0.347317
-0.858709 -0.381425 0.342249
-0.790881 -0.517431 0.326760
-0.752986 -0.576681 0.316941
-0.932696 -0.090157 0.349214
-0.923172 -0.157973 0.350424
-0.937465 0.077637 0.339310
-0.938824 0.027671 0.343282
-0.895714 0.321629 0.307004
-0.899460 0.308739 0.309277
-0.908693 0.273844 0.315097
-0.913871 0.251744 0.318537
-0.888521 0.344780 0.302750
-0.890175 0.339625 0.303716
-0.888250 0.345614 0.302593
-0.887547 0.347770 0.302184
-0.875215 0.383227 0.295187
-0.880457 0.368667 0.298126
-0.900454 0.305209 0.309888
-0.900605 0.304667 0.309981
-0.899314 0.309252 0.309189
-0.897846 0.314369 0.308293
-0.897032 0.317168 0.307796
-0.898683 0.311465 0.308800
-0.888878 0.343675 0.302958
-0.892167 0.333288 0.304887
-0.828078 0.491114 0.270358
-0.837861 0.471364 0.275328
-0.855062 0.433656 0.284273
-0.862581 0.415750 0.288282
-0.795693 0.549694 0.254379
-0.807004 0.530285 0.259888
-0.761134 0.603374 0.237941
-0.772727 0.586217 0.243397
</float_array>
          <technique_common>
            <accessor source="#polySurface1-lib-Normal0-array" count="162" stride="3">
              <param name="X" type="float"/>
              <param name="Y" type="float"/>
              <param name="Z" type="float"/>
            </accessor>
          </technique_common>
        </source>
        <vertices id="polySurface1-lib-Vertex">
          <input semantic="POSITION" source="#polySurface1-lib-Position"/>
        </vertices>
        <polygons material="lambert1" count="158">
          <input semantic="VERTEX" offset="0" source="#polySurface1-lib-Vertex"/>
          <input semantic="NORMAL" offset="1" source="#polySurface1-lib-Normal0"/>
          <p>80 80 1 1 2 2</p>
          <p>42 42 4 4 5 5</p>
          <p>24 24 6 6 7 7</p>
          <p>16 16 8 8 9 9</p>
          <p>12 12 10 10 11 11</p>
          <p>0 0 12 12 13 13</p>
          <p>10 10 14 14 15 15</p>
          <p>14 14 16 16 17 17</p>
          <p>20 20 18 18 19 19</p>
          <p>8 8 20 20 21 21</p>
          <p>18 18 22 22 23 23</p>
          <p>22 22 24 24 25 25</p>
          <p>34 34 26 26 27 27</p>
          <p>30 30 28 28 29 29</p>
          <p>6 6 30 30 31 31</p>
          <p>28 28 32 32 33 33</p>
          <p>32 32 34 34 35 35</p>
          <p>38 38 36 36 37 37</p>
          <p>26 26 38 38 39 39</p>
          <p>36 36 40 40 41 41</p>
          <p>40 40 42 42 43 43</p>
          <p>62 62 44 44 45 45</p>
          <p>54 54 46 46 47 47</p>
          <p>50 50 48 48 49 49</p>
          <p>4 4 50 50 51 51</p>
          <p>48 48 52 52 53 53</p>
          <p>52 52 54 54 55 55</p>
          <p>58 58 56 56 57 57</p>
          <p>46 46 58 58 59 59</p>
          <p>56 56 60 60 61 61</p>
          <p>60 60 62 62 63 63</p>
          <p>72 72 64 64 65 65</p>
          <p>68 68 66 66 67 67</p>
          <p>44 44 68 68 69 69</p>
          <p>66 66 70 70 71 71</p>
          <p>70 70 72 72 73 73</p>
          <p>76 76 74 74 75 75</p>
          <p>64 64 76 76 77 77</p>
          <p>74 74 78 78 79 79</p>
          <p>78 78 80 80 81 81</p>
          <p>2 2 81 81 80 80</p>
          <p>5 5 43 43 42 42</p>
          <p>7 7 25 25 24 24</p>
          <p>9 9 17 17 16 16</p>
          <p>11 11 13 13 12 12</p>
          <p>13 13 3 3 0 0</p>
          <p>15 15 11 11 10 10</p>
          <p>17 17 15 15 14 14</p>
          <p>19 19 21 21 20 20</p>
          <p>21 21 9 9 8 8</p>
          <p>23 23 19 19 18 18</p>
          <p>25 25 23 23 22 22</p>
          <p>27 27 35 35 34 34</p>
          <p>29 29 31 31 30 30</p>
          <p>31 31 7 7 6 6</p>
          <p>33 33 29 29 28 28</p>
          <p>35 35 33 33 32 32</p>
          <p>37 37 39 39 38 38</p>
          <p>39 39 27 27 26 26</p>
          <p>41 41 37 37 36 36</p>
          <p>43 43 41 41 40 40</p>
          <p>45 45 63 63 62 62</p>
          <p>47 47 55 55 54 54</p>
          <p>49 49 51 51 50 50</p>
          <p>51 51 5 5 4 4</p>
          <p>53 53 49 49 48 48</p>
          <p>55 55 53 53 52 52</p>
          <p>57 57 59 59 58 58</p>
          <p>59 59 47 47 46 46</p>
          <p>61 61 57 57 56 56</p>
          <p>63 63 61 61 60 60</p>
          <p>65 65 73 73 72 72</p>
          <p>67 67 69 69 68 68</p>
          <p>69 69 45 45 44 44</p>
          <p>71 71 67 67 66 66</p>
          <p>73 73 71 71 70 70</p>
          <p>75 75 77 77 76 76</p>
          <p>77 77 65 65 64 64</p>
          <p>79 79 75 75 74 74</p>
          <p>81 81 79 79 78 78</p>
          <p>160 160 83 83 84 84</p>
          <p>122 122 86 86 87 87</p>
          <p>104 104 88 88 89 89</p>
          <p>96 96 90 90 91 91</p>
          <p>94 94 92 92 93 93</p>
          <p>82 82 94 94 95 95</p>
          <p>92 92 96 96 97 97</p>
          <p>100 100 98 98 99 99</p>
          <p>90 90 100 100 101 101</p>
          <p>98 98 102 102 103 103</p>
          <p>102 102 104 104 105 105</p>
          <p>114 114 106 106 107 107</p>
          <p>110 110 108 108 109 109</p>
          <p>88 88 110 110 111 111</p>
          <p>108 108 112 112 113 113</p>
          <p>112 112 114 114 115 115</p>
          <p>118 118 116 116 117 117</p>
          <p>106 106 118 118 119 119</p>
          <p>116 116 120 120 121 121</p>
          <p>120 120 122 122 123 123</p>
          <p>142 142 124 124 125 125</p>
          <p>134 134 126 126 127 127</p>
          <p>130 130 128 128 129 129</p>
          <p>86 86 130 130 131 131</p>
          <p>128 128 132 132 133 133</p>
          <p>132 132 134 134 135 135</p>
          <p>138 138 136 136 137 137</p>
          <p>126 126 138 138 139 139</p>
          <p>136 136 140 140 141 141</p>
          <p>140 140 142 142 143 143</p>
          <p>152 152 144 144 145 145</p>
          <p>148 148 146 146 147 147</p>
          <p>124 124 148 148 149 149</p>
          <p>146 146 150 150 151 151</p>
          <p>150 150 152 152 153 153</p>
          <p>156 156 154 154 155 155</p>
          <p>144 144 156 156 157 157</p>
          <p>154 154 158 158 159 159</p>
          <p>158 158 160 160 161 161</p>
          <p>84 84 161 161 160 160</p>
          <p>87 87 123 123 122 122</p>
          <p>89 89 105 105 104 104</p>
          <p>91 91 97 97 96 96</p>
          <p>93 93 95 95 94 94</p>
          <p>95 95 85 85 82 82</p>
          <p>97 97 93 93 92 92</p>
          <p>99 99 101 101 100 100</p>
          <p>101 101 91 91 90 90</p>
          <p>103 103 99 99 98 98</p>
          <p>105 105 103 103 102 102</p>
          <p>107 107 115 115 114 114</p>
          <p>109 109 111 111 110 110</p>
          <p>111 111 89 89 88 88</p>
          <p>113 113 109 109 108 108</p>
          <p>115 115 113 113 112 112</p>
          <p>117 117 119 119 118 118</p>
          <p>119 119 107 107 106 106</p>
          <p>121 121 117 117 116 116</p>
          <p>123 123 121 121 120 120</p>
          <p>125 125 143 143 142 142</p>
          <p>127 127 135 135 134 134</p>
          <p>129 129 131 131 130 130</p>
          <p>131 131 87 87 86 86</p>
          <p>133 133 129 129 128 128</p>
          <p>135 135 133 133 132 132</p>
          <p>137 137 139 139 138 138</p>
          <p>139 139 127 127 126 126</p>
          <p>141 141 137 137 136 136</p>
          <p>143 143 141 141 140 140</p>
          <p>145 145 153 153 152 152</p>
          <p>147 147 149 149 148 148</p>
          <p>149 149 125 125 124 124</p>
          <p>151 151 147 147 146 146</p>
          <p>153 153 151 151 150 150</p>
          <p>155 155 157 157 156 156</p>
          <p>157 157 145 145 144 144</p>
          <p>159 159 155 155 154 154</p>
          <p>161 161 159 159 158 158</p>
        </polygons>
      </mesh>
    </geometry>
  </library_geometries>
  <library_visual_scenes>
    <visual_scene id="RootNode" name="RootNode">
      <node id="polySurface1" name="polySurface1">
        <instance_geometry url="#polySurface1-lib">
          <bind_material>
            <technique_common>
              <instance_material symbol="lambert1" target="#lambert1"/>
            </technique_common>
          </bind_material>
        </instance_geometry>
      </node>
    </visual_scene>
  </library_visual_scenes>
  <scene>
    <instance_visual_scene url="#RootNode"/>
  </scene>
</COLLADA>

