<?xml version="1.0" encoding="utf-8"?>
<COLLADA xmlns="http://www.collada.org/2005/11/COLLADASchema" version="1.4.0">
  <asset>
    <contributor>
      <author></author>
      <authoring_tool>FBX COLLADA exporter</authoring_tool>
      <comments></comments>
    </contributor>
    <created>2009-10-20T10:22:54Z</created>
    <modified>2009-10-20T10:22:54Z</modified>
    <revision></revision>
    <title></title>
    <subject></subject>
    <keywords></keywords>
    <unit meter="0.010000"/>
    <up_axis>Y_UP</up_axis>
  </asset>
  <library_images>
    <image id="file3-image" name="file3">
      <init_from>file://C:/blendmagic/sample_database/model/sc01_ks01.png</init_from>
    </image>
  </library_images>
  <library_materials>
    <material id="lambert4" name="lambert4">
      <instance_effect url="#lambert4-fx"/>
    </material>
  </library_materials>
  <library_effects>
    <effect id="lambert4-fx" name="lambert4">
      <profile_COMMON>
        <technique sid="standard">
          <lambert>
            <emission>
              <color sid="emission">0.000000  0.000000 0.000000 1.000000</color>
            </emission>
            <ambient>
              <color sid="ambient">0.000000  0.000000 0.000000 1.000000</color>
            </ambient>
            <diffuse>
              <texture texture="file3-image" texcoord="CHANNEL0">
                <extra>
                  <technique profile="MAYA">
                    <wrapU sid="wrapU0">TRUE</wrapU>
                    <wrapV sid="wrapV0">TRUE</wrapV>
                    <blend_mode>NONE</blend_mode>
                  </technique>
                </extra>
              </texture>
            </diffuse>
            <transparent>
              <color sid="transparent">0.000000  0.000000 0.000000 1.000000</color>
            </transparent>
            <transparency>
              <float sid="transparency">1.000000</float>
            </transparency>
          </lambert>
        </technique>
      </profile_COMMON>
    </effect>
  </library_effects>
  <library_geometries>
    <geometry id="wa04-lib" name="wa04Mesh">
      <mesh>
        <source id="wa04-lib-Position">
          <float_array id="wa04-lib-Position-array" count="504">
1.088668 0.631206 0.037287
0.628543 1.091331 0.037287
0.000000 1.259749 0.037287
-0.628543 1.091331 0.037287
-1.088668 0.631206 0.037287
-1.257086 0.002663 0.037287
-1.088668 -0.625879 0.037287
-0.628543 -1.086005 0.037287
0.000000 -1.254422 0.037287
0.628543 -1.086005 0.037287
1.088668 -0.625879 0.037287
1.257086 0.002663 0.037287
2.104409 1.217645 0.037287
1.214981 2.107073 0.037287
0.000000 2.432626 0.037287
-1.214981 2.107073 0.037287
-2.104409 1.217645 0.037287
-2.429962 0.002663 0.037287
-2.104409 -1.212318 0.037287
-1.214981 -2.101746 0.037287
-0.000000 -2.427299 0.037287
1.214981 -2.101746 0.037287
2.104409 -1.212318 0.037287
2.429962 0.002663 0.037287
3.156614 1.825135 0.037287
1.822472 3.159277 0.037287
0.000000 3.647607 0.037287
-1.822472 3.159277 0.037287
-3.156614 1.825135 0.037287
-3.644944 0.002664 0.037287
-3.156614 -1.819808 0.037287
-1.822472 -3.153951 0.037287
0.000000 -3.642280 0.037287
1.822472 -3.153951 0.037287
3.156614 -1.819808 0.037287
3.644944 0.002664 0.037287
4.354672 2.516835 0.037287
2.514172 4.357336 0.037287
0.000000 5.031006 0.037286
-2.514172 4.357336 0.037287
-4.354672 2.516835 0.037287
-5.028342 0.002663 0.037287
-4.354672 -2.511508 0.037287
-2.514171 -4.352009 0.037287
0.000000 -5.025680 0.037287
2.514171 -4.352009 0.037287
4.354672 -2.511508 0.037287
5.028342 0.002663 0.037287
0.892416 0.895079 0.037287
0.326647 1.221726 0.037287
-0.326647 1.221726 0.037287
-0.892416 0.895079 0.037287
-1.219063 0.329310 0.037287
-1.219063 -0.323983 0.037287
-0.892416 -0.889752 0.037287
-0.326647 -1.216399 0.037287
0.326647 -1.216399 0.037287
0.892416 -0.889752 0.037287
1.219063 -0.323983 0.037287
1.219063 0.329310 0.037287
1.784832 1.787495 0.037287
0.653294 2.440789 0.037287
-0.653294 2.440789 0.037287
-1.784832 1.787495 0.037287
-2.438125 0.655957 0.037287
-2.438125 -0.650630 0.037287
-1.784832 -1.782168 0.037287
-0.653294 -2.435462 0.037287
0.653294 -2.435462 0.037287
1.784832 -1.782168 0.037287
2.438125 -0.650630 0.037287
2.438125 0.655957 0.037287
2.677247 2.679911 0.037287
0.979941 3.659851 0.037287
-0.979941 3.659851 0.037287
-2.677247 2.679911 0.037287
-3.657188 0.982604 0.037287
-3.657188 -0.977277 0.037287
-2.677247 -2.674584 0.037287
-0.979941 -3.654525 0.037287
0.979941 -3.654525 0.037287
2.677247 -2.674584 0.037287
3.657188 -0.977277 0.037287
3.657188 0.982604 0.037287
3.569663 3.572326 0.037287
1.306587 4.878914 0.037287
-1.306587 4.878914 0.037287
-3.569663 3.572326 0.037287
-4.876250 1.309251 0.037287
-4.876250 -1.303924 0.037287
-3.569663 -3.567000 0.037287
-1.306587 -4.873588 0.037287
1.306587 -4.873588 0.037287
3.569663 -3.567000 0.037287
4.876250 -1.303924 0.037287
4.876250 1.309251 0.037287
1.578307 0.913899 0.037287
0.911236 1.580970 0.037287
0.000000 1.825135 0.037287
-0.911236 1.580970 0.037287
-1.578307 0.913899 0.037287
-1.822472 0.002663 0.037287
-1.578307 -0.908573 0.037287
-0.911236 -1.575644 0.037287
0.000000 -1.819808 0.037287
0.911236 -1.575644 0.037287
1.578307 -0.908573 0.037287
1.822472 0.002663 0.037287
2.630512 1.521390 0.037287
1.518727 2.633175 0.037287
0.000000 3.040117 0.037287
-1.518726 2.633175 0.037287
-2.630511 1.521390 0.037287
-3.037453 0.002663 0.037287
-2.630512 -1.516063 0.037287
-1.518727 -2.627848 0.037287
0.000000 -3.034790 0.037287
1.518726 -2.627848 0.037287
2.630511 -1.516063 0.037287
3.037453 0.002663 0.037287
3.682716 2.128881 0.037287
2.126217 3.685380 0.037287
0.000000 4.255098 0.037287
-2.126217 3.685380 0.037287
-3.682716 2.128881 0.037287
-4.252435 0.002663 0.037287
-3.682716 -2.123554 0.037287
-2.126217 -3.680053 0.037287
0.000000 -4.249771 0.037287
2.126217 -3.680053 0.037287
3.682716 -2.123554 0.037287
4.252435 0.002663 0.037287
1.338624 1.341287 0.037287
0.489970 1.831257 0.037287
-0.489970 1.831257 0.037287
-1.338624 1.341287 0.037287
-1.828594 0.492634 0.037287
-1.828594 -0.487307 0.037287
-1.338624 -1.335960 0.037287
-0.489970 -1.825930 0.037287
0.489970 -1.825931 0.037287
1.338624 -1.335960 0.037287
1.828594 -0.487307 0.037287
1.828594 0.492634 0.037287
2.231040 2.233703 0.037287
0.816617 3.050320 0.037287
-0.816617 3.050320 0.037287
-2.231039 2.233703 0.037287
-3.047657 0.819281 0.037287
-3.047657 -0.813954 0.037287
-2.231040 -2.228376 0.037287
-0.816617 -3.044993 0.037287
0.816617 -3.044993 0.037287
2.231039 -2.228376 0.037287
3.047657 -0.813954 0.037287
3.047657 0.819281 0.037287
3.123456 3.126119 0.037287
1.143264 4.269382 0.037287
-1.143264 4.269382 0.037287
-3.123456 3.126119 0.037287
-4.266719 1.145927 0.037287
-4.266719 -1.140601 0.037287
-3.123456 -3.120792 0.037287
-1.143264 -4.264056 0.037287
1.143264 -4.264056 0.037287
3.123456 -3.120792 0.037287
4.266719 -1.140601 0.037287
4.266719 1.145927 0.037287
</float_array>
          <technique_common>
            <accessor source="#wa04-lib-Position-array" count="168" stride="3">
              <param name="X" type="float"/>
              <param name="Y" type="float"/>
              <param name="Z" type="float"/>
            </accessor>
          </technique_common>
        </source>
        <source id="wa04-lib-Normal0">
          <float_array id="wa04-lib-Normal0-array" count="504">
-0.000000 -0.000000 1.000000
-0.000000 0.000000 1.000000
0.000000 0.000000 1.000000
0.000000 0.000000 1.000000
0.000000 -0.000000 1.000000
-0.000000 0.000000 1.000000
-0.000000 0.000000 1.000000
0.000000 0.000000 1.000000
0.000000 0.000000 1.000000
-0.000000 0.000000 1.000000
0.000000 0.000000 1.000000
0.000000 0.000000 1.000000
-0.000000 0.000000 1.000000
0.000000 0.000000 1.000000
-0.000000 0.000000 1.000000
-0.000000 0.000000 1.000000
-0.000000 0.000000 1.000000
0.000000 0.000000 1.000000
0.000000 0.000000 1.000000
-0.000000 0.000000 1.000000
-0.000000 0.000000 1.000000
0.000000 0.000000 1.000000
0.000000 0.000000 1.000000
-0.000000 0.000000 1.000000
0.000000 0.000000 1.000000
-0.000000 0.000000 1.000000
-0.000000 -0.000000 1.000000
0.000000 0.000000 1.000000
-0.000000 0.000000 1.000000
-0.000000 -0.000000 1.000000
-0.000000 0.000000 1.000000
-0.000000 0.000000 1.000000
0.000000 0.000000 1.000000
-0.000000 0.000000 1.000000
0.000000 0.000000 1.000000
0.000000 -0.000000 1.000000
0.000000 0.000000 1.000000
-0.000000 -0.000000 1.000000
-0.000000 0.000000 1.000000
0.000000 -0.000000 1.000000
-0.000000 0.000000 1.000000
-0.000000 -0.000000 1.000000
0.000000 0.000000 1.000000
-0.000000 0.000000 1.000000
0.000000 0.000000 1.000000
0.000000 0.000000 1.000000
-0.000000 0.000000 1.000000
0.000000 -0.000000 1.000000
0.000000 -0.000000 1.000000
-0.000000 0.000000 1.000000
0.000000 0.000000 1.000000
-0.000000 -0.000000 1.000000
0.000000 0.000000 1.000000
-0.000000 -0.000000 1.000000
-0.000000 0.000000 1.000000
0.000000 0.000000 1.000000
-0.000000 0.000000 1.000000
0.000000 0.000000 1.000000
0.000000 -0.000000 1.000000
-0.000000 0.000000 1.000000
-0.000000 0.000000 1.000000
-0.000000 -0.000000 1.000000
0.000000 -0.000000 1.000000
-0.000000 -0.000000 1.000000
0.000000 0.000000 1.000000
0.000000 -0.000000 1.000000
-0.000000 0.000000 1.000000
-0.000000 0.000000 1.000000
0.000000 0.000000 1.000000
0.000000 0.000000 1.000000
-0.000000 -0.000000 1.000000
-0.000000 0.000000 1.000000
0.000000 -0.000000 1.000000
0.000000 -0.000000 1.000000
-0.000000 -0.000000 1.000000
-0.000000 -0.000000 1.000000
-0.000000 -0.000000 1.000000
-0.000000 0.000000 1.000000
-0.000000 0.000000 1.000000
-0.000000 0.000000 1.000000
0.000000 0.000000 1.000000
0.000000 0.000000 1.000000
0.000000 0.000000 1.000000
0.000000 -0.000000 1.000000
0.000000 -0.000000 1.000000
-0.000000 0.000000 1.000000
0.000000 0.000000 1.000000
-0.000000 -0.000000 1.000000
-0.000000 -0.000000 1.000000
-0.000000 0.000000 1.000000
0.000000 0.000000 1.000000
-0.000000 0.000000 1.000000
0.000000 0.000000 1.000000
-0.000000 0.000000 1.000000
0.000000 0.000000 1.000000
0.000000 -0.000000 1.000000
-0.000000 -0.000000 1.000000
0.000000 0.000000 1.000000
-0.000000 0.000000 1.000000
-0.000000 0.000000 1.000000
-0.000000 0.000000 1.000000
0.000000 0.000000 1.000000
-0.000000 0.000000 1.000000
-0.000000 0.000000 1.000000
0.000000 0.000000 1.000000
0.000000 0.000000 1.000000
0.000000 0.000000 1.000000
-0.000000 0.000000 1.000000
0.000000 0.000000 1.000000
-0.000000 -0.000000 1.000000
0.000000 -0.000000 1.000000
0.000000 -0.000000 1.000000
0.000000 -0.000000 1.000000
-0.000000 -0.000000 1.000000
-0.000000 0.000000 1.000000
0.000000 0.000000 1.000000
0.000000 0.000000 1.000000
-0.000000 0.000000 1.000000
0.000000 0.000000 1.000000
0.000000 -0.000000 1.000000
0.000000 0.000000 1.000000
-0.000000 -0.000000 1.000000
-0.000000 0.000000 1.000000
0.000000 -0.000000 1.000000
-0.000000 0.000000 1.000000
-0.000000 -0.000000 1.000000
0.000000 0.000000 1.000000
-0.000000 0.000000 1.000000
0.000000 0.000000 1.000000
0.000000 0.000000 1.000000
-0.000000 0.000000 1.000000
-0.000000 -0.000000 1.000000
-0.000000 -0.000000 1.000000
-0.000000 0.000000 1.000000
0.000000 0.000000 1.000000
-0.000000 -0.000000 1.000000
0.000000 0.000000 1.000000
0.000000 -0.000000 1.000000
-0.000000 0.000000 1.000000
-0.000000 0.000000 1.000000
0.000000 0.000000 1.000000
0.000000 0.000000 1.000000
-0.000000 -0.000000 1.000000
-0.000000 0.000000 1.000000
-0.000000 -0.000000 1.000000
-0.000000 -0.000000 1.000000
0.000000 -0.000000 1.000000
0.000000 -0.000000 1.000000
-0.000000 0.000000 1.000000
-0.000000 -0.000000 1.000000
-0.000000 0.000000 1.000000
0.000000 0.000000 1.000000
-0.000000 0.000000 1.000000
0.000000 0.000000 1.000000
0.000000 -0.000000 1.000000
0.000000 0.000000 1.000000
0.000000 -0.000000 1.000000
-0.000000 0.000000 1.000000
0.000000 0.000000 1.000000
-0.000000 -0.000000 1.000000
-0.000000 -0.000000 1.000000
0.000000 0.000000 1.000000
0.000000 0.000000 1.000000
-0.000000 0.000000 1.000000
0.000000 0.000000 1.000000
-0.000000 0.000000 1.000000
-0.000000 0.000000 1.000000
0.000000 -0.000000 1.000000
</float_array>
          <technique_common>
            <accessor source="#wa04-lib-Normal0-array" count="168" stride="3">
              <param name="X" type="float"/>
              <param name="Y" type="float"/>
              <param name="Z" type="float"/>
            </accessor>
          </technique_common>
        </source>
        <source id="wa04-lib-UV0">
          <float_array id="wa04-lib-UV0-array" count="392">
0.556987 0.996823
0.296246 0.996823
0.000000 0.996823
0.556987 0.996823
0.296246 0.996823
0.000000 0.996823
0.556987 0.996823
0.296246 0.996823
0.000000 0.996823
0.556987 0.996823
0.296246 0.996823
-0.000000 0.996823
0.579849 0.695578
0.291808 0.695578
1.000628 0.695578
0.579849 0.695578
0.291808 0.695578
1.000628 0.695578
0.579849 0.695578
0.291808 0.695578
1.000628 0.695578
0.579849 0.695578
0.291808 0.695578
1.000628 0.695578
0.579849 0.369949
0.291808 0.369949
1.000628 0.369949
0.579849 0.369949
0.291808 0.369949
1.000628 0.369949
0.579849 0.369949
0.291808 0.369949
1.000628 0.369949
0.579849 0.369949
0.291808 0.369949
1.000628 0.369949
0.556987 -0.002146
0.296246 -0.002146
1.000628 -0.002146
0.556987 -0.002146
0.296246 -0.002146
1.000628 -0.002146
0.556987 -0.002146
0.296246 -0.002146
1.000628 -0.002146
0.556987 -0.002146
0.296246 -0.002146
1.000628 -0.002146
0.000000 0.369949
0.000000 -0.002146
0.000000 0.369949
0.000000 -0.002146
0.000000 0.695578
0.000000 0.695578
1.000628 0.996823
1.000628 0.996823
0.000000 0.369949
0.000000 -0.002146
0.000000 0.695578
1.000628 0.996823
0.000000 0.369949
0.000000 -0.002146
-0.000000 0.695578
1.000628 0.996823
0.426617 0.847627
0.148123 0.847627
0.778807 0.847627
0.426617 0.847627
0.148123 0.847627
0.778807 0.847627
0.426617 0.847627
0.148123 0.847627
0.778807 0.847627
0.426617 0.847627
0.148123 0.847627
0.778807 0.847627
0.426617 0.537824
0.148123 0.537824
0.778807 0.537824
0.426617 0.537824
0.148123 0.537824
0.778807 0.537824
0.426617 0.537824
0.148123 0.537824
0.778807 0.537824
0.426617 0.537824
0.148123 0.537824
0.778807 0.537824
0.426617 0.187536
0.148123 0.187536
0.778807 0.187536
0.426617 0.187536
0.148123 0.187536
0.778807 0.187536
0.426617 0.187536
0.148123 0.187536
0.778807 0.187536
0.426617 0.187536
0.148123 0.187536
0.778807 0.187536
0.579849 0.847627
0.426617 0.695578
0.291808 0.847627
0.426617 0.996823
0.148123 0.695578
0.000000 0.847627
0.148123 0.996823
1.000628 0.847627
0.778807 0.695578
0.579849 0.847627
0.778807 0.996823
0.426617 0.695578
0.291808 0.847627
0.426617 0.996823
0.148123 0.695578
0.000000 0.847627
0.148123 0.996823
1.000628 0.847627
0.778807 0.695578
0.579849 0.847627
0.778807 0.996823
0.426617 0.695578
0.291808 0.847627
0.426617 0.996823
0.148123 0.695578
0.000000 0.847627
0.148123 0.996823
1.000628 0.847627
0.778807 0.695578
0.579849 0.847627
0.778807 0.996823
0.426617 0.695578
0.291808 0.847627
0.426617 0.996823
0.148123 0.695578
-0.000000 0.847627
0.148123 0.996823
1.000628 0.847627
0.778807 0.695578
0.778807 0.996823
0.579849 0.537824
0.426617 0.369949
0.291808 0.537824
0.148123 0.369949
0.000000 0.537824
1.000628 0.537824
0.778807 0.369949
0.579849 0.537824
0.426617 0.369949
0.291808 0.537824
0.148123 0.369949
0.000000 0.537824
1.000628 0.537824
0.778807 0.369949
0.579849 0.537824
0.426617 0.369949
0.291808 0.537824
0.148123 0.369949
0.000000 0.537824
1.000628 0.537824
0.778807 0.369949
0.579849 0.537824
0.426617 0.369949
0.291808 0.537824
0.148123 0.369949
0.000000 0.537824
1.000628 0.537824
0.778807 0.369949
0.579849 0.187536
0.426617 -0.002146
0.291808 0.187536
0.148123 -0.002146
0.000000 0.187536
1.000628 0.187536
0.778807 -0.002146
0.579849 0.187536
0.426617 -0.002146
0.291808 0.187536
0.148123 -0.002146
0.000000 0.187536
1.000628 0.187536
0.778807 -0.002146
0.579849 0.187536
0.426617 -0.002146
0.291808 0.187536
0.148123 -0.002146
0.000000 0.187536
1.000628 0.187536
0.778807 -0.002146
0.579849 0.187536
0.426617 -0.002146
0.291808 0.187536
0.148123 -0.002146
0.000000 0.187536
1.000628 0.187536
0.778807 -0.002146
</float_array>
          <technique_common>
            <accessor source="#wa04-lib-UV0-array" count="196" stride="2">
              <param name="S" type="float"/>
              <param name="T" type="float"/>
            </accessor>
          </technique_common>
        </source>
        <source id="wa04-lib-VertexColors0">
          <float_array id="wa04-lib-VertexColors0-array" count="2304">
0.500000 0.500000 0.500000 1.000000
1.000000 1.000000 1.000000 1.000000
1.000000 1.000000 1.000000 1.000000
0.500000 0.500000 0.500000 1.000000
1.000000 1.000000 1.000000 1.000000
1.000000 1.000000 1.000000 1.000000
0.500000 0.500000 0.500000 1.000000
0.500000 0.500000 0.500000 1.000000
0.500000 0.500000 0.500000 1.000000
0.000000 0.000000 0.000000 0.000000
0.000000 0.000000 0.000000 0.000000
0.500000 0.500000 0.500000 1.000000
0.000000 0.000000 0.000000 0.000000
0.000000 0.000000 0.000000 0.000000
0.500000 0.500000 0.500000 1.000000
0.500000 0.500000 0.500000 1.000000
0.500000 0.500000 0.500000 1.000000
1.000000 1.000000 1.000000 1.000000
1.000000 1.000000 1.000000 1.000000
0.500000 0.500000 0.500000 1.000000
1.000000 1.000000 1.000000 1.000000
1.000000 1.000000 1.000000 1.000000
0.500000 0.500000 0.500000 1.000000
0.500000 0.500000 0.500000 1.000000
0.500000 0.500000 0.500000 1.000000
0.000000 0.000000 0.000000 0.000000
0.000000 0.000000 0.000000 0.000000
0.500000 0.500000 0.500000 1.000000
0.000000 0.000000 0.000000 0.000000
0.000000 0.000000 0.000000 0.000000
0.500000 0.500000 0.500000 1.000000
0.500000 0.500000 0.500000 1.000000
0.500000 0.500000 0.500000 1.000000
1.000000 1.000000 1.000000 1.000000
1.000000 1.000000 1.000000 1.000000
0.500000 0.500000 0.500000 1.000000
1.000000 1.000000 1.000000 1.000000
1.000000 1.000000 1.000000 1.000000
0.500000 0.500000 0.500000 1.000000
0.500000 0.500000 0.500000 1.000000
0.500000 0.500000 0.500000 1.000000
0.000000 0.000000 0.000000 0.000000
0.000000 0.000000 0.000000 0.000000
0.500000 0.500000 0.500000 1.000000
0.000000 0.000000 0.000000 0.000000
0.000000 0.000000 0.000000 0.000000
0.500000 0.500000 0.500000 1.000000
0.500000 0.500000 0.500000 1.000000
0.500000 0.500000 0.500000 1.000000
1.000000 1.000000 1.000000 1.000000
1.000000 1.000000 1.000000 1.000000
0.500000 0.500000 0.500000 1.000000
1.000000 1.000000 1.000000 1.000000
1.000000 1.000000 1.000000 1.000000
0.500000 0.500000 0.500000 1.000000
0.500000 0.500000 0.500000 1.000000
0.500000 0.500000 0.500000 1.000000
0.000000 0.000000 0.000000 0.000000
0.000000 0.000000 0.000000 0.000000
0.500000 0.500000 0.500000 1.000000
0.000000 0.000000 0.000000 0.000000
0.000000 0.000000 0.000000 0.000000
0.500000 0.500000 0.500000 1.000000
0.500000 0.500000 0.500000 1.000000
0.500000 0.500000 0.500000 1.000000
1.000000 1.000000 1.000000 1.000000
1.000000 1.000000 1.000000 1.000000
0.500000 0.500000 0.500000 1.000000
1.000000 1.000000 1.000000 1.000000
1.000000 1.000000 1.000000 1.000000
0.500000 0.500000 0.500000 1.000000
0.500000 0.500000 0.500000 1.000000
0.500000 0.500000 0.500000 1.000000
0.000000 0.000000 0.000000 0.000000
0.000000 0.000000 0.000000 0.000000
0.500000 0.500000 0.500000 1.000000
0.000000 0.000000 0.000000 0.000000
0.000000 0.000000 0.000000 0.000000
0.500000 0.500000 0.500000 1.000000
0.500000 0.500000 0.500000 1.000000
0.500000 0.500000 0.500000 1.000000
1.000000 1.000000 1.000000 1.000000
1.000000 1.000000 1.000000 1.000000
0.500000 0.500000 0.500000 1.000000
1.000000 1.000000 1.000000 1.000000
1.000000 1.000000 1.000000 1.000000
0.500000 0.500000 0.500000 1.000000
0.500000 0.500000 0.500000 1.000000
0.500000 0.500000 0.500000 1.000000
0.000000 0.000000 0.000000 0.000000
0.000000 0.000000 0.000000 0.000000
0.500000 0.500000 0.500000 1.000000
0.000000 0.000000 0.000000 0.000000
0.000000 0.000000 0.000000 0.000000
0.500000 0.500000 0.500000 1.000000
0.500000 0.500000 0.500000 1.000000
0.500000 0.500000 0.500000 1.000000
1.000000 1.000000 1.000000 1.000000
1.000000 1.000000 1.000000 1.000000
0.500000 0.500000 0.500000 1.000000
1.000000 1.000000 1.000000 1.000000
1.000000 1.000000 1.000000 1.000000
0.500000 0.500000 0.500000 1.000000
0.500000 0.500000 0.500000 1.000000
0.500000 0.500000 0.500000 1.000000
0.000000 0.000000 0.000000 0.000000
0.000000 0.000000 0.000000 0.000000
0.500000 0.500000 0.500000 1.000000
0.000000 0.000000 0.000000 0.000000
0.000000 0.000000 0.000000 0.000000
0.500000 0.500000 0.500000 1.000000
0.500000 0.500000 0.500000 1.000000
0.500000 0.500000 0.500000 1.000000
1.000000 1.000000 1.000000 1.000000
1.000000 1.000000 1.000000 1.000000
0.500000 0.500000 0.500000 1.000000
1.000000 1.000000 1.000000 1.000000
1.000000 1.000000 1.000000 1.000000
0.500000 0.500000 0.500000 1.000000
0.500000 0.500000 0.500000 1.000000
0.500000 0.500000 0.500000 1.000000
0.000000 0.000000 0.000000 0.000000
0.000000 0.000000 0.000000 0.000000
0.500000 0.500000 0.500000 1.000000
0.000000 0.000000 0.000000 0.000000
0.000000 0.000000 0.000000 0.000000
0.500000 0.500000 0.500000 1.000000
0.500000 0.500000 0.500000 1.000000
0.500000 0.500000 0.500000 1.000000
1.000000 1.000000 1.000000 1.000000
1.000000 1.000000 1.000000 1.000000
0.500000 0.500000 0.500000 1.000000
1.000000 1.000000 1.000000 1.000000
1.000000 1.000000 1.000000 1.000000
0.500000 0.500000 0.500000 1.000000
0.500000 0.500000 0.500000 1.000000
0.500000 0.500000 0.500000 1.000000
0.000000 0.000000 0.000000 0.000000
0.000000 0.000000 0.000000 0.000000
0.500000 0.500000 0.500000 1.000000
0.000000 0.000000 0.000000 0.000000
0.000000 0.000000 0.000000 0.000000
0.500000 0.500000 0.500000 1.000000
0.500000 0.500000 0.500000 1.000000
0.500000 0.500000 0.500000 1.000000
1.000000 1.000000 1.000000 1.000000
1.000000 1.000000 1.000000 1.000000
0.500000 0.500000 0.500000 1.000000
1.000000 1.000000 1.000000 1.000000
1.000000 1.000000 1.000000 1.000000
0.500000 0.500000 0.500000 1.000000
0.500000 0.500000 0.500000 1.000000
0.500000 0.500000 0.500000 1.000000
0.000000 0.000000 0.000000 0.000000
0.000000 0.000000 0.000000 0.000000
0.500000 0.500000 0.500000 1.000000
0.000000 0.000000 0.000000 0.000000
0.000000 0.000000 0.000000 0.000000
0.500000 0.500000 0.500000 1.000000
0.500000 0.500000 0.500000 1.000000
0.500000 0.500000 0.500000 1.000000
1.000000 1.000000 1.000000 1.000000
1.000000 1.000000 1.000000 1.000000
0.500000 0.500000 0.500000 1.000000
1.000000 1.000000 1.000000 1.000000
1.000000 1.000000 1.000000 1.000000
0.500000 0.500000 0.500000 1.000000
0.500000 0.500000 0.500000 1.000000
0.500000 0.500000 0.500000 1.000000
0.000000 0.000000 0.000000 0.000000
0.000000 0.000000 0.000000 0.000000
0.500000 0.500000 0.500000 1.000000
0.000000 0.000000 0.000000 0.000000
0.000000 0.000000 0.000000 0.000000
0.500000 0.500000 0.500000 1.000000
0.500000 0.500000 0.500000 1.000000
0.500000 0.500000 0.500000 1.000000
1.000000 1.000000 1.000000 1.000000
1.000000 1.000000 1.000000 1.000000
0.500000 0.500000 0.500000 1.000000
1.000000 1.000000 1.000000 1.000000
1.000000 1.000000 1.000000 1.000000
0.500000 0.500000 0.500000 1.000000
0.500000 0.500000 0.500000 1.000000
0.500000 0.500000 0.500000 1.000000
0.000000 0.000000 0.000000 0.000000
0.000000 0.000000 0.000000 0.000000
0.500000 0.500000 0.500000 1.000000
0.000000 0.000000 0.000000 0.000000
0.000000 0.000000 0.000000 0.000000
0.500000 0.500000 0.500000 1.000000
0.500000 0.500000 0.500000 1.000000
1.000000 1.000000 1.000000 1.000000
1.000000 1.000000 1.000000 1.000000
1.000000 1.000000 1.000000 1.000000
1.000000 1.000000 1.000000 1.000000
1.000000 1.000000 1.000000 1.000000
1.000000 1.000000 1.000000 1.000000
1.000000 1.000000 1.000000 1.000000
1.000000 1.000000 1.000000 1.000000
1.000000 1.000000 1.000000 1.000000
1.000000 1.000000 1.000000 1.000000
1.000000 1.000000 1.000000 1.000000
1.000000 1.000000 1.000000 1.000000
1.000000 1.000000 1.000000 1.000000
1.000000 1.000000 1.000000 1.000000
1.000000 1.000000 1.000000 1.000000
1.000000 1.000000 1.000000 1.000000
1.000000 1.000000 1.000000 1.000000
1.000000 1.000000 1.000000 1.000000
1.000000 1.000000 1.000000 1.000000
1.000000 1.000000 1.000000 1.000000
1.000000 1.000000 1.000000 1.000000
1.000000 1.000000 1.000000 1.000000
1.000000 1.000000 1.000000 1.000000
1.000000 1.000000 1.000000 1.000000
1.000000 1.000000 1.000000 1.000000
1.000000 1.000000 1.000000 1.000000
1.000000 1.000000 1.000000 1.000000
1.000000 1.000000 1.000000 1.000000
1.000000 1.000000 1.000000 1.000000
1.000000 1.000000 1.000000 1.000000
1.000000 1.000000 1.000000 1.000000
1.000000 1.000000 1.000000 1.000000
1.000000 1.000000 1.000000 1.000000
1.000000 1.000000 1.000000 1.000000
1.000000 1.000000 1.000000 1.000000
1.000000 1.000000 1.000000 1.000000
1.000000 1.000000 1.000000 1.000000
1.000000 1.000000 1.000000 1.000000
1.000000 1.000000 1.000000 1.000000
1.000000 1.000000 1.000000 1.000000
1.000000 1.000000 1.000000 1.000000
1.000000 1.000000 1.000000 1.000000
1.000000 1.000000 1.000000 1.000000
1.000000 1.000000 1.000000 1.000000
1.000000 1.000000 1.000000 1.000000
1.000000 1.000000 1.000000 1.000000
1.000000 1.000000 1.000000 1.000000
1.000000 1.000000 1.000000 1.000000
1.000000 1.000000 1.000000 1.000000
1.000000 1.000000 1.000000 1.000000
1.000000 1.000000 1.000000 1.000000
1.000000 1.000000 1.000000 1.000000
1.000000 1.000000 1.000000 1.000000
1.000000 1.000000 1.000000 1.000000
1.000000 1.000000 1.000000 1.000000
1.000000 1.000000 1.000000 1.000000
1.000000 1.000000 1.000000 1.000000
1.000000 1.000000 1.000000 1.000000
1.000000 1.000000 1.000000 1.000000
1.000000 1.000000 1.000000 1.000000
1.000000 1.000000 1.000000 1.000000
1.000000 1.000000 1.000000 1.000000
1.000000 1.000000 1.000000 1.000000
1.000000 1.000000 1.000000 1.000000
1.000000 1.000000 1.000000 1.000000
1.000000 1.000000 1.000000 1.000000
1.000000 1.000000 1.000000 1.000000
1.000000 1.000000 1.000000 1.000000
1.000000 1.000000 1.000000 1.000000
1.000000 1.000000 1.000000 1.000000
1.000000 1.000000 1.000000 1.000000
1.000000 1.000000 1.000000 1.000000
1.000000 1.000000 1.000000 1.000000
1.000000 1.000000 1.000000 1.000000
1.000000 1.000000 1.000000 1.000000
1.000000 1.000000 1.000000 1.000000
1.000000 1.000000 1.000000 1.000000
1.000000 1.000000 1.000000 1.000000
1.000000 1.000000 1.000000 1.000000
1.000000 1.000000 1.000000 1.000000
1.000000 1.000000 1.000000 1.000000
1.000000 1.000000 1.000000 1.000000
1.000000 1.000000 1.000000 1.000000
1.000000 1.000000 1.000000 1.000000
1.000000 1.000000 1.000000 1.000000
1.000000 1.000000 1.000000 1.000000
1.000000 1.000000 1.000000 1.000000
1.000000 1.000000 1.000000 1.000000
1.000000 1.000000 1.000000 1.000000
1.000000 1.000000 1.000000 1.000000
1.000000 1.000000 1.000000 1.000000
1.000000 1.000000 1.000000 1.000000
1.000000 1.000000 1.000000 1.000000
1.000000 1.000000 1.000000 1.000000
1.000000 1.000000 1.000000 1.000000
1.000000 1.000000 1.000000 1.000000
1.000000 1.000000 1.000000 1.000000
1.000000 1.000000 1.000000 1.000000
1.000000 1.000000 1.000000 1.000000
1.000000 1.000000 1.000000 1.000000
1.000000 1.000000 1.000000 1.000000
1.000000 1.000000 1.000000 1.000000
1.000000 1.000000 1.000000 1.000000
1.000000 1.000000 1.000000 1.000000
1.000000 1.000000 1.000000 1.000000
1.000000 1.000000 1.000000 1.000000
1.000000 1.000000 1.000000 1.000000
1.000000 1.000000 1.000000 1.000000
1.000000 1.000000 1.000000 1.000000
1.000000 1.000000 1.000000 1.000000
1.000000 1.000000 1.000000 1.000000
1.000000 1.000000 1.000000 1.000000
1.000000 1.000000 1.000000 1.000000
1.000000 1.000000 1.000000 1.000000
1.000000 1.000000 1.000000 1.000000
1.000000 1.000000 1.000000 1.000000
1.000000 1.000000 1.000000 1.000000
1.000000 1.000000 1.000000 1.000000
1.000000 1.000000 1.000000 1.000000
1.000000 1.000000 1.000000 1.000000
1.000000 1.000000 1.000000 1.000000
1.000000 1.000000 1.000000 1.000000
1.000000 1.000000 1.000000 1.000000
1.000000 1.000000 1.000000 1.000000
1.000000 1.000000 1.000000 1.000000
1.000000 1.000000 1.000000 1.000000
1.000000 1.000000 1.000000 1.000000
1.000000 1.000000 1.000000 1.000000
1.000000 1.000000 1.000000 1.000000
1.000000 1.000000 1.000000 1.000000
1.000000 1.000000 1.000000 1.000000
1.000000 1.000000 1.000000 1.000000
1.000000 1.000000 1.000000 1.000000
1.000000 1.000000 1.000000 1.000000
1.000000 1.000000 1.000000 1.000000
1.000000 1.000000 1.000000 1.000000
1.000000 1.000000 1.000000 1.000000
1.000000 1.000000 1.000000 1.000000
1.000000 1.000000 1.000000 1.000000
1.000000 1.000000 1.000000 1.000000
1.000000 1.000000 1.000000 1.000000
1.000000 1.000000 1.000000 1.000000
1.000000 1.000000 1.000000 1.000000
1.000000 1.000000 1.000000 1.000000
1.000000 1.000000 1.000000 1.000000
1.000000 1.000000 1.000000 1.000000
1.000000 1.000000 1.000000 1.000000
1.000000 1.000000 1.000000 1.000000
1.000000 1.000000 1.000000 1.000000
1.000000 1.000000 1.000000 1.000000
1.000000 1.000000 1.000000 1.000000
1.000000 1.000000 1.000000 1.000000
1.000000 1.000000 1.000000 1.000000
1.000000 1.000000 1.000000 1.000000
1.000000 1.000000 1.000000 1.000000
1.000000 1.000000 1.000000 1.000000
1.000000 1.000000 1.000000 1.000000
1.000000 1.000000 1.000000 1.000000
1.000000 1.000000 1.000000 1.000000
1.000000 1.000000 1.000000 1.000000
1.000000 1.000000 1.000000 1.000000
1.000000 1.000000 1.000000 1.000000
1.000000 1.000000 1.000000 1.000000
1.000000 1.000000 1.000000 1.000000
1.000000 1.000000 1.000000 1.000000
1.000000 1.000000 1.000000 1.000000
1.000000 1.000000 1.000000 1.000000
1.000000 1.000000 1.000000 1.000000
1.000000 1.000000 1.000000 1.000000
1.000000 1.000000 1.000000 1.000000
1.000000 1.000000 1.000000 1.000000
1.000000 1.000000 1.000000 1.000000
1.000000 1.000000 1.000000 1.000000
1.000000 1.000000 1.000000 1.000000
1.000000 1.000000 1.000000 1.000000
1.000000 1.000000 1.000000 1.000000
1.000000 1.000000 1.000000 1.000000
1.000000 1.000000 1.000000 1.000000
1.000000 1.000000 1.000000 1.000000
1.000000 1.000000 1.000000 1.000000
1.000000 1.000000 1.000000 1.000000
1.000000 1.000000 1.000000 1.000000
1.000000 1.000000 1.000000 1.000000
1.000000 1.000000 1.000000 1.000000
1.000000 1.000000 1.000000 1.000000
1.000000 1.000000 1.000000 1.000000
1.000000 1.000000 1.000000 1.000000
1.000000 1.000000 1.000000 1.000000
1.000000 1.000000 1.000000 1.000000
1.000000 1.000000 1.000000 1.000000
1.000000 1.000000 1.000000 1.000000
1.000000 1.000000 1.000000 1.000000
0.500000 0.500000 0.500000 1.000000
0.000000 0.000000 0.000000 0.000000
0.000000 0.000000 0.000000 0.000000
0.500000 0.500000 0.500000 1.000000
0.000000 0.000000 0.000000 0.000000
0.000000 0.000000 0.000000 0.000000
0.500000 0.500000 0.500000 1.000000
0.500000 0.500000 0.500000 1.000000
0.500000 0.500000 0.500000 1.000000
1.000000 1.000000 1.000000 1.000000
1.000000 1.000000 1.000000 1.000000
0.500000 0.500000 0.500000 1.000000
1.000000 1.000000 1.000000 1.000000
1.000000 1.000000 1.000000 1.000000
0.500000 0.500000 0.500000 1.000000
0.500000 0.500000 0.500000 1.000000
0.500000 0.500000 0.500000 1.000000
0.000000 0.000000 0.000000 0.000000
0.000000 0.000000 0.000000 0.000000
0.500000 0.500000 0.500000 1.000000
0.000000 0.000000 0.000000 0.000000
0.000000 0.000000 0.000000 0.000000
0.500000 0.500000 0.500000 1.000000
0.500000 0.500000 0.500000 1.000000
0.500000 0.500000 0.500000 1.000000
1.000000 1.000000 1.000000 1.000000
1.000000 1.000000 1.000000 1.000000
0.500000 0.500000 0.500000 1.000000
1.000000 1.000000 1.000000 1.000000
1.000000 1.000000 1.000000 1.000000
0.500000 0.500000 0.500000 1.000000
0.500000 0.500000 0.500000 1.000000
0.500000 0.500000 0.500000 1.000000
0.000000 0.000000 0.000000 0.000000
0.000000 0.000000 0.000000 0.000000
0.500000 0.500000 0.500000 1.000000
0.000000 0.000000 0.000000 0.000000
0.000000 0.000000 0.000000 0.000000
0.500000 0.500000 0.500000 1.000000
0.500000 0.500000 0.500000 1.000000
0.500000 0.500000 0.500000 1.000000
1.000000 1.000000 1.000000 1.000000
1.000000 1.000000 1.000000 1.000000
0.500000 0.500000 0.500000 1.000000
1.000000 1.000000 1.000000 1.000000
1.000000 1.000000 1.000000 1.000000
0.500000 0.500000 0.500000 1.000000
0.500000 0.500000 0.500000 1.000000
0.500000 0.500000 0.500000 1.000000
0.000000 0.000000 0.000000 0.000000
0.000000 0.000000 0.000000 0.000000
0.500000 0.500000 0.500000 1.000000
0.000000 0.000000 0.000000 0.000000
0.000000 0.000000 0.000000 0.000000
0.500000 0.500000 0.500000 1.000000
0.500000 0.500000 0.500000 1.000000
0.500000 0.500000 0.500000 1.000000
1.000000 1.000000 1.000000 1.000000
1.000000 1.000000 1.000000 1.000000
0.500000 0.500000 0.500000 1.000000
1.000000 1.000000 1.000000 1.000000
1.000000 1.000000 1.000000 1.000000
0.500000 0.500000 0.500000 1.000000
0.500000 0.500000 0.500000 1.000000
0.500000 0.500000 0.500000 1.000000
0.000000 0.000000 0.000000 0.000000
0.000000 0.000000 0.000000 0.000000
0.500000 0.500000 0.500000 1.000000
0.000000 0.000000 0.000000 0.000000
0.000000 0.000000 0.000000 0.000000
0.500000 0.500000 0.500000 1.000000
0.500000 0.500000 0.500000 1.000000
0.500000 0.500000 0.500000 1.000000
1.000000 1.000000 1.000000 1.000000
1.000000 1.000000 1.000000 1.000000
0.500000 0.500000 0.500000 1.000000
1.000000 1.000000 1.000000 1.000000
1.000000 1.000000 1.000000 1.000000
0.500000 0.500000 0.500000 1.000000
0.500000 0.500000 0.500000 1.000000
0.500000 0.500000 0.500000 1.000000
0.000000 0.000000 0.000000 0.000000
0.000000 0.000000 0.000000 0.000000
0.500000 0.500000 0.500000 1.000000
0.000000 0.000000 0.000000 0.000000
0.000000 0.000000 0.000000 0.000000
0.500000 0.500000 0.500000 1.000000
0.500000 0.500000 0.500000 1.000000
0.500000 0.500000 0.500000 1.000000
1.000000 1.000000 1.000000 1.000000
1.000000 1.000000 1.000000 1.000000
0.500000 0.500000 0.500000 1.000000
1.000000 1.000000 1.000000 1.000000
1.000000 1.000000 1.000000 1.000000
0.500000 0.500000 0.500000 1.000000
0.500000 0.500000 0.500000 1.000000
0.500000 0.500000 0.500000 1.000000
0.000000 0.000000 0.000000 0.000000
0.000000 0.000000 0.000000 0.000000
0.500000 0.500000 0.500000 1.000000
0.000000 0.000000 0.000000 0.000000
0.000000 0.000000 0.000000 0.000000
0.500000 0.500000 0.500000 1.000000
0.500000 0.500000 0.500000 1.000000
0.500000 0.500000 0.500000 1.000000
1.000000 1.000000 1.000000 1.000000
1.000000 1.000000 1.000000 1.000000
0.500000 0.500000 0.500000 1.000000
1.000000 1.000000 1.000000 1.000000
1.000000 1.000000 1.000000 1.000000
0.500000 0.500000 0.500000 1.000000
0.500000 0.500000 0.500000 1.000000
0.500000 0.500000 0.500000 1.000000
0.000000 0.000000 0.000000 0.000000
0.000000 0.000000 0.000000 0.000000
0.500000 0.500000 0.500000 1.000000
0.000000 0.000000 0.000000 0.000000
0.000000 0.000000 0.000000 0.000000
0.500000 0.500000 0.500000 1.000000
0.500000 0.500000 0.500000 1.000000
0.500000 0.500000 0.500000 1.000000
1.000000 1.000000 1.000000 1.000000
1.000000 1.000000 1.000000 1.000000
0.500000 0.500000 0.500000 1.000000
1.000000 1.000000 1.000000 1.000000
1.000000 1.000000 1.000000 1.000000
0.500000 0.500000 0.500000 1.000000
0.500000 0.500000 0.500000 1.000000
0.500000 0.500000 0.500000 1.000000
0.000000 0.000000 0.000000 0.000000
0.000000 0.000000 0.000000 0.000000
0.500000 0.500000 0.500000 1.000000
0.000000 0.000000 0.000000 0.000000
0.000000 0.000000 0.000000 0.000000
0.500000 0.500000 0.500000 1.000000
0.500000 0.500000 0.500000 1.000000
0.500000 0.500000 0.500000 1.000000
1.000000 1.000000 1.000000 1.000000
1.000000 1.000000 1.000000 1.000000
0.500000 0.500000 0.500000 1.000000
1.000000 1.000000 1.000000 1.000000
1.000000 1.000000 1.000000 1.000000
0.500000 0.500000 0.500000 1.000000
0.500000 0.500000 0.500000 1.000000
0.500000 0.500000 0.500000 1.000000
0.000000 0.000000 0.000000 0.000000
0.000000 0.000000 0.000000 0.000000
0.500000 0.500000 0.500000 1.000000
0.000000 0.000000 0.000000 0.000000
0.000000 0.000000 0.000000 0.000000
0.500000 0.500000 0.500000 1.000000
0.500000 0.500000 0.500000 1.000000
0.500000 0.500000 0.500000 1.000000
1.000000 1.000000 1.000000 1.000000
1.000000 1.000000 1.000000 1.000000
0.500000 0.500000 0.500000 1.000000
1.000000 1.000000 1.000000 1.000000
1.000000 1.000000 1.000000 1.000000
0.500000 0.500000 0.500000 1.000000
0.500000 0.500000 0.500000 1.000000
0.500000 0.500000 0.500000 1.000000
0.000000 0.000000 0.000000 0.000000
0.000000 0.000000 0.000000 0.000000
0.500000 0.500000 0.500000 1.000000
0.000000 0.000000 0.000000 0.000000
0.000000 0.000000 0.000000 0.000000
0.500000 0.500000 0.500000 1.000000
0.500000 0.500000 0.500000 1.000000
0.500000 0.500000 0.500000 1.000000
1.000000 1.000000 1.000000 1.000000
1.000000 1.000000 1.000000 1.000000
0.500000 0.500000 0.500000 1.000000
1.000000 1.000000 1.000000 1.000000
1.000000 1.000000 1.000000 1.000000
0.500000 0.500000 0.500000 1.000000
0.500000 0.500000 0.500000 1.000000
0.500000 0.500000 0.500000 1.000000
0.000000 0.000000 0.000000 0.000000
0.000000 0.000000 0.000000 0.000000
0.500000 0.500000 0.500000 1.000000
0.000000 0.000000 0.000000 0.000000
0.000000 0.000000 0.000000 0.000000
0.500000 0.500000 0.500000 1.000000
0.500000 0.500000 0.500000 1.000000
0.500000 0.500000 0.500000 1.000000
1.000000 1.000000 1.000000 1.000000
1.000000 1.000000 1.000000 1.000000
0.500000 0.500000 0.500000 1.000000
1.000000 1.000000 1.000000 1.000000
1.000000 1.000000 1.000000 1.000000
0.500000 0.500000 0.500000 1.000000
0.500000 0.500000 0.500000 1.000000
</float_array>
          <technique_common>
            <accessor source="#wa04-lib-VertexColors0-array" count="576" stride="4">
              <param name="R" type="double"/>
              <param name="G" type="double"/>
              <param name="B" type="double"/>
              <param name="A" type="double"/>
            </accessor>
          </technique_common>
        </source>
        <vertices id="wa04-lib-Vertex">
          <input semantic="POSITION" source="#wa04-lib-Position"/>
        </vertices>
        <polygons material="lambert4" count="144">
          <input semantic="VERTEX" offset="0" source="#wa04-lib-Vertex"/>
          <input semantic="NORMAL" offset="1" source="#wa04-lib-Normal0"/>
          <input semantic="TEXCOORD" offset="2" set="0" source="#wa04-lib-UV0"/>
          <input semantic="COLOR" offset="3" set="0" source="#wa04-lib-VertexColors0"/>
          <p>96 96 100 0 12 12 12 1 60 60 101 2 132 132 64 3</p>
          <p>60 60 101 4 13 13 13 5 97 97 102 6 132 132 64 7</p>
          <p>97 97 102 8 1 1 1 9 48 48 103 10 132 132 64 11</p>
          <p>48 48 103 12 0 0 0 13 96 96 100 14 132 132 64 15</p>
          <p>97 97 102 16 13 13 13 17 61 61 104 18 133 133 65 19</p>
          <p>61 61 104 20 14 14 58 21 98 98 105 22 133 133 65 23</p>
          <p>98 98 105 24 2 2 2 25 49 49 106 26 133 133 65 27</p>
          <p>49 49 106 28 1 1 1 29 97 97 102 30 133 133 65 31</p>
          <p>98 98 107 32 14 14 14 33 62 62 108 34 134 134 66 35</p>
          <p>62 62 108 36 15 15 15 37 99 99 109 38 134 134 66 39</p>
          <p>99 99 109 40 3 3 3 41 50 50 110 42 134 134 66 43</p>
          <p>50 50 110 44 2 2 59 45 98 98 107 46 134 134 66 47</p>
          <p>99 99 109 48 15 15 15 49 63 63 111 50 135 135 67 51</p>
          <p>63 63 111 52 16 16 16 53 100 100 112 54 135 135 67 55</p>
          <p>100 100 112 56 4 4 4 57 51 51 113 58 135 135 67 59</p>
          <p>51 51 113 60 3 3 3 61 99 99 109 62 135 135 67 63</p>
          <p>100 100 112 64 16 16 16 65 64 64 114 66 136 136 68 67</p>
          <p>64 64 114 68 17 17 53 69 101 101 115 70 136 136 68 71</p>
          <p>101 101 115 72 5 5 5 73 52 52 116 74 136 136 68 75</p>
          <p>52 52 116 76 4 4 4 77 100 100 112 78 136 136 68 79</p>
          <p>101 101 117 80 17 17 17 81 65 65 118 82 137 137 69 83</p>
          <p>65 65 118 84 18 18 18 85 102 102 119 86 137 137 69 87</p>
          <p>102 102 119 88 6 6 6 89 53 53 120 90 137 137 69 91</p>
          <p>53 53 120 92 5 5 55 93 101 101 117 94 137 137 69 95</p>
          <p>102 102 119 96 18 18 18 97 66 66 121 98 138 138 70 99</p>
          <p>66 66 121 100 19 19 19 101 103 103 122 102 138 138 70 103</p>
          <p>103 103 122 104 7 7 7 105 54 54 123 106 138 138 70 107</p>
          <p>54 54 123 108 6 6 6 109 102 102 119 110 138 138 70 111</p>
          <p>103 103 122 112 19 19 19 113 67 67 124 114 139 139 71 115</p>
          <p>67 67 124 116 20 20 52 117 104 104 125 118 139 139 71 119</p>
          <p>104 104 125 120 8 8 8 121 55 55 126 122 139 139 71 123</p>
          <p>55 55 126 124 7 7 7 125 103 103 122 126 139 139 71 127</p>
          <p>104 104 127 128 20 20 20 129 68 68 128 130 140 140 72 131</p>
          <p>68 68 128 132 21 21 21 133 105 105 129 134 140 140 72 135</p>
          <p>105 105 129 136 9 9 9 137 56 56 130 138 140 140 72 139</p>
          <p>56 56 130 140 8 8 54 141 104 104 127 142 140 140 72 143</p>
          <p>105 105 129 144 21 21 21 145 69 69 131 146 141 141 73 147</p>
          <p>69 69 131 148 22 22 22 149 106 106 132 150 141 141 73 151</p>
          <p>106 106 132 152 10 10 10 153 57 57 133 154 141 141 73 155</p>
          <p>57 57 133 156 9 9 9 157 105 105 129 158 141 141 73 159</p>
          <p>106 106 132 160 22 22 22 161 70 70 134 162 142 142 74 163</p>
          <p>70 70 134 164 23 23 62 165 107 107 135 166 142 142 74 167</p>
          <p>107 107 135 168 11 11 11 169 58 58 136 170 142 142 74 171</p>
          <p>58 58 136 172 10 10 10 173 106 106 132 174 142 142 74 175</p>
          <p>107 107 137 176 23 23 23 177 71 71 138 178 143 143 75 179</p>
          <p>71 71 138 180 12 12 12 181 96 96 100 182 143 143 75 183</p>
          <p>96 96 100 184 0 0 0 185 59 59 139 186 143 143 75 187</p>
          <p>59 59 139 188 11 11 63 189 107 107 137 190 143 143 75 191</p>
          <p>108 108 140 192 24 24 24 193 72 72 141 194 144 144 76 195</p>
          <p>72 72 141 196 25 25 25 197 109 109 142 198 144 144 76 199</p>
          <p>109 109 142 200 13 13 13 201 60 60 101 202 144 144 76 203</p>
          <p>60 60 101 204 12 12 12 205 108 108 140 206 144 144 76 207</p>
          <p>109 109 142 208 25 25 25 209 73 73 143 210 145 145 77 211</p>
          <p>73 73 143 212 26 26 56 213 110 110 144 214 145 145 77 215</p>
          <p>110 110 144 216 14 14 58 217 61 61 104 218 145 145 77 219</p>
          <p>61 61 104 220 13 13 13 221 109 109 142 222 145 145 77 223</p>
          <p>110 110 145 224 26 26 26 225 74 74 146 226 146 146 78 227</p>
          <p>74 74 146 228 27 27 27 229 111 111 147 230 146 146 78 231</p>
          <p>111 111 147 232 15 15 15 233 62 62 108 234 146 146 78 235</p>
          <p>62 62 108 236 14 14 14 237 110 110 145 238 146 146 78 239</p>
          <p>111 111 147 240 27 27 27 241 75 75 148 242 147 147 79 243</p>
          <p>75 75 148 244 28 28 28 245 112 112 149 246 147 147 79 247</p>
          <p>112 112 149 248 16 16 16 249 63 63 111 250 147 147 79 251</p>
          <p>63 63 111 252 15 15 15 253 111 111 147 254 147 147 79 255</p>
          <p>112 112 149 256 28 28 28 257 76 76 150 258 148 148 80 259</p>
          <p>76 76 150 260 29 29 50 261 113 113 151 262 148 148 80 263</p>
          <p>113 113 151 264 17 17 53 265 64 64 114 266 148 148 80 267</p>
          <p>64 64 114 268 16 16 16 269 112 112 149 270 148 148 80 271</p>
          <p>113 113 152 272 29 29 29 273 77 77 153 274 149 149 81 275</p>
          <p>77 77 153 276 30 30 30 277 114 114 154 278 149 149 81 279</p>
          <p>114 114 154 280 18 18 18 281 65 65 118 282 149 149 81 283</p>
          <p>65 65 118 284 17 17 17 285 113 113 152 286 149 149 81 287</p>
          <p>114 114 154 288 30 30 30 289 78 78 155 290 150 150 82 291</p>
          <p>78 78 155 292 31 31 31 293 115 115 156 294 150 150 82 295</p>
          <p>115 115 156 296 19 19 19 297 66 66 121 298 150 150 82 299</p>
          <p>66 66 121 300 18 18 18 301 114 114 154 302 150 150 82 303</p>
          <p>115 115 156 304 31 31 31 305 79 79 157 306 151 151 83 307</p>
          <p>79 79 157 308 32 32 48 309 116 116 158 310 151 151 83 311</p>
          <p>116 116 158 312 20 20 52 313 67 67 124 314 151 151 83 315</p>
          <p>67 67 124 316 19 19 19 317 115 115 156 318 151 151 83 319</p>
          <p>116 116 159 320 32 32 32 321 80 80 160 322 152 152 84 323</p>
          <p>80 80 160 324 33 33 33 325 117 117 161 326 152 152 84 327</p>
          <p>117 117 161 328 21 21 21 329 68 68 128 330 152 152 84 331</p>
          <p>68 68 128 332 20 20 20 333 116 116 159 334 152 152 84 335</p>
          <p>117 117 161 336 33 33 33 337 81 81 162 338 153 153 85 339</p>
          <p>81 81 162 340 34 34 34 341 118 118 163 342 153 153 85 343</p>
          <p>118 118 163 344 22 22 22 345 69 69 131 346 153 153 85 347</p>
          <p>69 69 131 348 21 21 21 349 117 117 161 350 153 153 85 351</p>
          <p>118 118 163 352 34 34 34 353 82 82 164 354 154 154 86 355</p>
          <p>82 82 164 356 35 35 60 357 119 119 165 358 154 154 86 359</p>
          <p>119 119 165 360 23 23 62 361 70 70 134 362 154 154 86 363</p>
          <p>70 70 134 364 22 22 22 365 118 118 163 366 154 154 86 367</p>
          <p>119 119 166 368 35 35 35 369 83 83 167 370 155 155 87 371</p>
          <p>83 83 167 372 24 24 24 373 108 108 140 374 155 155 87 375</p>
          <p>108 108 140 376 12 12 12 377 71 71 138 378 155 155 87 379</p>
          <p>71 71 138 380 23 23 23 381 119 119 166 382 155 155 87 383</p>
          <p>120 120 168 384 36 36 36 385 84 84 169 386 156 156 88 387</p>
          <p>84 84 169 388 37 37 37 389 121 121 170 390 156 156 88 391</p>
          <p>121 121 170 392 25 25 25 393 72 72 141 394 156 156 88 395</p>
          <p>72 72 141 396 24 24 24 397 120 120 168 398 156 156 88 399</p>
          <p>121 121 170 400 37 37 37 401 85 85 171 402 157 157 89 403</p>
          <p>85 85 171 404 38 38 57 405 122 122 172 406 157 157 89 407</p>
          <p>122 122 172 408 26 26 56 409 73 73 143 410 157 157 89 411</p>
          <p>73 73 143 412 25 25 25 413 121 121 170 414 157 157 89 415</p>
          <p>122 122 173 416 38 38 38 417 86 86 174 418 158 158 90 419</p>
          <p>86 86 174 420 39 39 39 421 123 123 175 422 158 158 90 423</p>
          <p>123 123 175 424 27 27 27 425 74 74 146 426 158 158 90 427</p>
          <p>74 74 146 428 26 26 26 429 122 122 173 430 158 158 90 431</p>
          <p>123 123 175 432 39 39 39 433 87 87 176 434 159 159 91 435</p>
          <p>87 87 176 436 40 40 40 437 124 124 177 438 159 159 91 439</p>
          <p>124 124 177 440 28 28 28 441 75 75 148 442 159 159 91 443</p>
          <p>75 75 148 444 27 27 27 445 123 123 175 446 159 159 91 447</p>
          <p>124 124 177 448 40 40 40 449 88 88 178 450 160 160 92 451</p>
          <p>88 88 178 452 41 41 51 453 125 125 179 454 160 160 92 455</p>
          <p>125 125 179 456 29 29 50 457 76 76 150 458 160 160 92 459</p>
          <p>76 76 150 460 28 28 28 461 124 124 177 462 160 160 92 463</p>
          <p>125 125 180 464 41 41 41 465 89 89 181 466 161 161 93 467</p>
          <p>89 89 181 468 42 42 42 469 126 126 182 470 161 161 93 471</p>
          <p>126 126 182 472 30 30 30 473 77 77 153 474 161 161 93 475</p>
          <p>77 77 153 476 29 29 29 477 125 125 180 478 161 161 93 479</p>
          <p>126 126 182 480 42 42 42 481 90 90 183 482 162 162 94 483</p>
          <p>90 90 183 484 43 43 43 485 127 127 184 486 162 162 94 487</p>
          <p>127 127 184 488 31 31 31 489 78 78 155 490 162 162 94 491</p>
          <p>78 78 155 492 30 30 30 493 126 126 182 494 162 162 94 495</p>
          <p>127 127 184 496 43 43 43 497 91 91 185 498 163 163 95 499</p>
          <p>91 91 185 500 44 44 49 501 128 128 186 502 163 163 95 503</p>
          <p>128 128 186 504 32 32 48 505 79 79 157 506 163 163 95 507</p>
          <p>79 79 157 508 31 31 31 509 127 127 184 510 163 163 95 511</p>
          <p>128 128 187 512 44 44 44 513 92 92 188 514 164 164 96 515</p>
          <p>92 92 188 516 45 45 45 517 129 129 189 518 164 164 96 519</p>
          <p>129 129 189 520 33 33 33 521 80 80 160 522 164 164 96 523</p>
          <p>80 80 160 524 32 32 32 525 128 128 187 526 164 164 96 527</p>
          <p>129 129 189 528 45 45 45 529 93 93 190 530 165 165 97 531</p>
          <p>93 93 190 532 46 46 46 533 130 130 191 534 165 165 97 535</p>
          <p>130 130 191 536 34 34 34 537 81 81 162 538 165 165 97 539</p>
          <p>81 81 162 540 33 33 33 541 129 129 189 542 165 165 97 543</p>
          <p>130 130 191 544 46 46 46 545 94 94 192 546 166 166 98 547</p>
          <p>94 94 192 548 47 47 61 549 131 131 193 550 166 166 98 551</p>
          <p>131 131 193 552 35 35 60 553 82 82 164 554 166 166 98 555</p>
          <p>82 82 164 556 34 34 34 557 130 130 191 558 166 166 98 559</p>
          <p>131 131 194 560 47 47 47 561 95 95 195 562 167 167 99 563</p>
          <p>95 95 195 564 36 36 36 565 120 120 168 566 167 167 99 567</p>
          <p>120 120 168 568 24 24 24 569 83 83 167 570 167 167 99 571</p>
          <p>83 83 167 572 35 35 35 573 131 131 194 574 167 167 99 575</p>
        </polygons>
      </mesh>
    </geometry>
  </library_geometries>
  <library_visual_scenes>
    <visual_scene id="RootNode" name="RootNode">
      <node id="wa04" name="wa04">
        <translate sid="rotatePivot">-0.001453 0.002663 0.039950</translate>
        <translate sid="rotatePivotInverse">0.001453 -0.002663 -0.039950</translate>
        <translate sid="scalePivot">-0.001453 0.002663 0.039950</translate>
        <scale sid="scale">1.564150 1.564150 1.564150</scale>
        <translate sid="scalePivotInverse">0.001453 -0.002663 -0.039950</translate>
        <instance_geometry url="#wa04-lib">
          <bind_material>
            <technique_common>
              <instance_material symbol="lambert4" target="#lambert4"/>
            </technique_common>
          </bind_material>
        </instance_geometry>
      </node>
    </visual_scene>
  </library_visual_scenes>
  <scene>
    <instance_visual_scene url="#RootNode"/>
  </scene>
</COLLADA>

